<svg width="164" height="164" viewBox="0 0 164 164" fill="none" xmlns="http://www.w3.org/2000/svg">
<circle cx="82" cy="82" r="79" stroke="#4B4B4B" stroke-width="6"/>
<path d="M53.1226 112H51.7749L47.5049 103.782V112H46.1572V101.336H47.5049L51.7896 109.59V101.336H53.1226V112ZM62.3804 107.605C62.3804 109.061 62.0703 110.181 61.4502 110.967C60.8301 111.753 59.9487 112.146 58.8062 112.146C57.7075 112.146 56.8384 111.766 56.1987 111.004C55.564 110.237 55.2344 109.156 55.21 107.759V105.752C55.21 104.327 55.5249 103.211 56.1548 102.405C56.7847 101.595 57.6636 101.189 58.7915 101.189C59.9146 101.189 60.7886 101.578 61.4136 102.354C62.0435 103.125 62.3657 104.229 62.3804 105.665V107.605ZM61.04 105.738C61.04 104.61 60.8545 103.772 60.4834 103.226C60.1172 102.674 59.5532 102.398 58.7915 102.398C58.0542 102.398 57.4951 102.676 57.1143 103.233C56.7383 103.79 56.5479 104.61 56.543 105.694V107.605C56.543 108.694 56.731 109.524 57.1069 110.096C57.4878 110.667 58.0542 110.953 58.8062 110.953C59.5581 110.953 60.1147 110.689 60.4761 110.162C60.8374 109.634 61.0254 108.826 61.04 107.737V105.738ZM70.1001 102.493H67.2949V112H65.9546V102.493H63.1567V101.336H70.1001V102.493ZM80.5005 102.493H77.6953V112H76.355V102.493H73.5571V101.336H80.5005V102.493ZM87.1875 107.071H83.4155V110.85H87.8101V112H82.0752V101.336H87.7368V102.493H83.4155V105.921H87.1875V107.071ZM94.1895 109.305C94.1895 108.772 94.0454 108.365 93.7573 108.082C93.4692 107.798 92.9492 107.522 92.1973 107.254C91.4453 106.985 90.8691 106.705 90.4688 106.412C90.0732 106.114 89.7754 105.777 89.5752 105.401C89.3799 105.02 89.2822 104.585 89.2822 104.097C89.2822 103.252 89.563 102.557 90.1245 102.01C90.6909 101.463 91.4307 101.189 92.3438 101.189C92.9688 101.189 93.5254 101.331 94.0137 101.614C94.502 101.893 94.8779 102.281 95.1416 102.779C95.4053 103.277 95.5371 103.824 95.5371 104.419H94.1895C94.1895 103.76 94.0308 103.25 93.7134 102.889C93.396 102.527 92.9395 102.347 92.3438 102.347C91.8018 102.347 91.3818 102.498 91.084 102.801C90.7861 103.104 90.6372 103.528 90.6372 104.075C90.6372 104.524 90.7983 104.9 91.1206 105.203C91.4429 105.506 91.9409 105.777 92.6147 106.016C93.6646 106.363 94.4141 106.79 94.8633 107.298C95.3174 107.806 95.5444 108.47 95.5444 109.29C95.5444 110.154 95.2637 110.848 94.7021 111.37C94.1406 111.888 93.3765 112.146 92.4097 112.146C91.7896 112.146 91.2158 112.012 90.6885 111.744C90.166 111.47 89.7534 111.089 89.4507 110.601C89.1528 110.108 89.0039 109.544 89.0039 108.909H90.3516C90.3516 109.568 90.5347 110.081 90.9009 110.447C91.272 110.813 91.7749 110.997 92.4097 110.997C93.0005 110.997 93.4448 110.845 93.7427 110.542C94.0405 110.24 94.1895 109.827 94.1895 109.305ZM103.542 102.493H100.737V112H99.397V102.493H96.5991V101.336H103.542V102.493ZM110.229 107.071H106.458V110.85H110.852V112H105.117V101.336H110.779V102.493H106.458V105.921H110.229V107.071ZM112.573 112V101.336H115.115C116.36 101.336 117.327 101.727 118.015 102.508C118.704 103.284 119.048 104.378 119.048 105.789V107.576C119.048 108.987 118.699 110.079 118 110.85C117.302 111.617 116.289 112 114.961 112H112.573ZM113.914 102.493V110.85H114.99C115.933 110.85 116.621 110.582 117.056 110.044C117.49 109.502 117.712 108.702 117.722 107.642V105.752C117.722 104.629 117.505 103.807 117.07 103.284C116.641 102.757 115.989 102.493 115.115 102.493H113.914ZM51.3647 125.605C51.3647 127.061 51.0547 128.181 50.4346 128.967C49.8145 129.753 48.9331 130.146 47.7905 130.146C46.6919 130.146 45.8228 129.766 45.1831 129.004C44.5483 128.237 44.2188 127.156 44.1943 125.759V123.752C44.1943 122.327 44.5093 121.211 45.1392 120.405C45.769 119.595 46.6479 119.189 47.7759 119.189C48.8989 119.189 49.7729 119.578 50.3979 120.354C51.0278 121.125 51.3501 122.229 51.3647 123.665V125.605ZM50.0244 123.738C50.0244 122.61 49.8389 121.772 49.4678 121.226C49.1016 120.674 48.5376 120.398 47.7759 120.398C47.0386 120.398 46.4795 120.676 46.0986 121.233C45.7227 121.79 45.5322 122.61 45.5273 123.694V125.605C45.5273 126.694 45.7153 127.524 46.0913 128.096C46.4722 128.667 47.0386 128.953 47.7905 128.953C48.5425 128.953 49.0991 128.689 49.4604 128.162C49.8218 127.634 50.0098 126.826 50.0244 125.737V123.738ZM60.4028 130H59.0552L54.7852 121.782V130H53.4375V119.336H54.7852L59.0698 127.59V119.336H60.4028V130ZM71.1401 127.217H67.5366L66.709 130H65.332L68.7671 119.336H69.917L73.3594 130H71.9824L71.1401 127.217ZM67.8882 126.06H70.7959L69.3384 121.211L67.8882 126.06ZM81.7749 130H80.4272L76.1572 121.782V130H74.8096V119.336H76.1572L80.4419 127.59V119.336H81.7749V130ZM85.4956 130H84.1553V119.336H85.4956V130ZM89.5752 119.336L92.3584 128.037L95.1416 119.336H96.8701V130H95.5298V125.847L95.6543 121.687L92.8638 130H91.8384L89.0625 121.716L89.187 125.847V130H87.8467V119.336H89.5752ZM104.29 127.217H100.686L99.8584 130H98.4814L101.917 119.336H103.066L106.509 130H105.132L104.29 127.217ZM101.038 126.06H103.945L102.488 121.211L101.038 126.06ZM109.307 128.85H113.489V130H107.959V119.336H109.307V128.85ZM119.751 127.305C119.751 126.772 119.607 126.365 119.319 126.082C119.031 125.798 118.511 125.522 117.759 125.254C117.007 124.985 116.431 124.705 116.03 124.412C115.635 124.114 115.337 123.777 115.137 123.401C114.941 123.02 114.844 122.585 114.844 122.097C114.844 121.252 115.125 120.557 115.686 120.01C116.252 119.463 116.992 119.189 117.905 119.189C118.53 119.189 119.087 119.331 119.575 119.614C120.063 119.893 120.439 120.281 120.703 120.779C120.967 121.277 121.099 121.824 121.099 122.419H119.751C119.751 121.76 119.592 121.25 119.275 120.889C118.958 120.527 118.501 120.347 117.905 120.347C117.363 120.347 116.943 120.498 116.646 120.801C116.348 121.104 116.199 121.528 116.199 122.075C116.199 122.524 116.36 122.9 116.682 123.203C117.004 123.506 117.502 123.777 118.176 124.016C119.226 124.363 119.976 124.79 120.425 125.298C120.879 125.806 121.106 126.47 121.106 127.29C121.106 128.154 120.825 128.848 120.264 129.37C119.702 129.888 118.938 130.146 117.971 130.146C117.351 130.146 116.777 130.012 116.25 129.744C115.728 129.47 115.315 129.089 115.012 128.601C114.714 128.108 114.565 127.544 114.565 126.909H115.913C115.913 127.568 116.096 128.081 116.462 128.447C116.833 128.813 117.336 128.997 117.971 128.997C118.562 128.997 119.006 128.845 119.304 128.542C119.602 128.24 119.751 127.827 119.751 127.305Z" fill="#4B4B4B"/>
<mask id="path-3-outside-1" maskUnits="userSpaceOnUse" x="45" y="30" width="73" height="61" fill="black">
<rect fill="white" x="45" y="30" width="73" height="61"/>
<path fill-rule="evenodd" clip-rule="evenodd" d="M111.229 87.8613C110.008 87.8613 108.946 87.1602 108.419 86.1366C108.44 86.3591 108.452 86.5848 108.452 86.8132C108.452 88.5703 107.032 90 105.288 90C103.544 90 102.125 88.5703 102.125 86.8132C102.125 86.4954 101.858 86.2272 101.543 86.2272H100.353C99.6398 87.2875 98.4285 88.0163 97.0724 88.2082V88.8062C97.0724 89.4126 96.5832 89.9061 95.9819 89.9061H77.706C77.6614 89.9061 77.6181 89.8996 77.5769 89.8877C77.5124 89.8996 77.4462 89.9061 77.3784 89.9061H57.4572C55.8144 89.9061 54.737 88.1774 55.4341 86.69C55.2374 86.6543 55.0435 86.6109 54.8525 86.56C54.8155 86.5738 54.7762 86.5833 54.7355 86.5872C51.2368 86.9307 47.6158 84.7155 46.4041 81.5636C45.5346 79.3017 46.0907 77.0347 47.8556 75.6472C47.9562 75.5682 48.0846 75.5341 48.211 75.5534C48.7914 75.6421 49.4175 75.6952 50.1549 75.7407C50.8558 74.415 51.9417 73.3122 53.2841 72.6023C54.4927 68.12 57.1497 64.082 61.0815 61.7954C63.5686 60.3489 66.1787 59.3694 68.839 58.8843C71.12 58.4685 73.3752 58.4462 75.4095 58.8151C72.2203 52.4501 68.4168 47.6652 62.9309 42.8483C61.8189 41.8721 61.233 40.7601 61.2366 39.6325C61.2403 38.4181 61.9042 37.2917 63.1061 36.4611C65.2664 34.9678 67.5339 34.81 69.8094 36.0134C69.1965 33.9559 70.2642 32.1894 72.3705 31.44C74.8928 30.542 77.2385 30.9951 79.2294 33.0157C83.784 37.6381 85.203 49.309 85.2267 55.601C89.2795 56.3518 93.4495 59.3198 94.553 63.3061C96.1342 63.9836 97.5792 64.8425 98.8102 65.832C97.1911 60.0292 94.7813 55.1586 91.1644 49.9653C90.3172 48.7491 90.0131 47.5281 90.2847 46.434C90.5775 45.256 91.4899 44.323 92.8546 43.8066C95.248 42.9007 97.5152 43.2268 99.4983 45.0156C99.3354 42.816 100.791 41.302 103.066 41.0778C105.386 40.8492 107.355 41.5782 108.797 43.4476C110.641 45.837 111.51 49.9014 111.38 55.5276C111.274 60.0885 110.499 64.7418 109.775 67.7312C111.675 68.5939 113.436 69.9758 114.778 71.7243C116.612 74.1121 117.362 76.8463 116.836 79.2258C116.831 79.2474 116.825 79.2687 116.817 79.2891C116.316 80.6282 115.397 81.8219 114.134 82.7868C114.306 83.3992 114.393 84.0327 114.393 84.6745C114.393 86.4317 112.973 87.8613 111.229 87.8613V87.8613ZM78.7341 77.9161C78.0101 77.9161 77.4374 77.7615 77.0086 77.5737C75.9724 77.1198 75.5138 76.37 75.4946 76.3384C75.362 76.1172 75.4323 75.8295 75.6519 75.6959C75.8704 75.5627 76.1545 75.6325 76.2881 75.8517C76.3481 75.9479 77.7163 78.046 81.4365 76.2774L81.6113 76.2329L83.0414 76.1215C83.8681 76.0571 84.6001 76.6899 84.6641 77.5214C84.7722 78.9302 86.1398 79.879 87.4559 79.5263C88.474 79.2603 89.2049 78.1862 89.1197 77.0807C88.8645 73.7577 85.9654 71.2847 82.6967 71.5391L77.8332 71.9182C77.7205 71.9274 77.6081 71.8939 77.5176 71.8251C77.1041 71.5108 76.7155 71.1552 76.3623 70.7684C74.5798 68.8157 73.6589 66.4431 73.7696 64.0872C73.841 62.5668 74.3387 61.0774 75.2183 59.7305C70.9805 58.9604 66.0418 59.9911 61.5458 62.6059C58.2551 64.5198 55.6823 67.9576 54.389 72.1283C54.5222 72.0838 54.6568 72.0423 54.7935 72.0051C55.0411 71.9372 55.2962 72.0846 55.3634 72.334C55.4305 72.5834 55.2843 72.8405 55.0368 72.9081C54.5739 73.0345 54.2868 73.1557 53.8668 73.3533C52.5958 73.9834 51.5733 75.0104 50.9358 76.2548C50.9324 76.3171 50.9164 76.379 50.8879 76.4367C48.8139 80.6395 51.7476 85.5443 56.3043 85.8565C56.7124 85.8845 56.8875 86.3959 56.5829 86.6714C55.697 87.4731 56.2578 88.9703 57.4573 88.9703H77.3785C77.4675 88.9703 77.5399 88.8967 77.5399 88.8062V86.7438C77.5383 85.483 76.5555 84.5971 75.2928 84.7341L72.9921 84.984C72.8894 84.995 72.7896 84.9713 72.7057 84.9213L66.0615 85.6428C65.6464 85.6878 65.3874 85.1959 65.6573 84.875C67.778 82.3557 69.6324 78.2555 69.0736 75.2935C68.8231 73.9651 68.108 72.9743 66.9484 72.3482C66.7222 72.226 66.6371 71.9426 66.7583 71.7147C66.8796 71.4871 67.1609 71.4012 67.3872 71.5232C68.8064 72.2895 69.6808 73.4992 69.9863 75.1189C70.5599 78.1589 68.9685 81.9599 67.0577 84.5935L72.9978 83.9483C73.1785 83.8443 73.3605 83.7392 73.5436 83.6325C75.6205 82.4248 78.8717 79.8095 80.4988 77.6417C79.8332 77.8389 79.246 77.9162 78.7342 77.9162L78.7341 77.9161ZM49.2782 79.3025C49.2746 78.3785 49.4398 77.4835 49.7476 76.6519C49.2138 76.615 48.7331 76.5711 48.2774 76.5086C46.9675 77.6417 46.5802 79.4303 47.2704 81.2256C48.0623 83.2854 50.1185 84.9351 52.3987 85.4874C50.4181 84.055 49.2576 81.774 49.2782 79.3025V79.3025ZM75.159 83.7135C76.0578 83.6158 76.8739 83.8502 77.5046 84.4188C78.1174 84.9717 78.4688 85.7872 78.4688 86.6564L78.469 88.8999C78.469 88.9234 78.4682 88.9469 78.4668 88.9703H95.9819C96.0709 88.9703 96.1435 88.8967 96.1435 88.8062V86.6564C96.1435 85.3803 95.1519 84.5037 93.8963 84.6402L84.6648 85.6428C84.2496 85.6878 83.991 85.1958 84.261 84.8749C85.3059 83.6336 86.2321 82.0843 86.8653 80.5345C85.2353 80.5221 83.864 79.2347 83.7378 77.5934C83.7139 77.2812 83.4292 77.0298 83.113 77.0545L81.9293 77.1467C80.7576 79.3102 77.5763 82.0739 75.159 83.7134V83.7135ZM76.3832 59.6956C76.3799 59.7001 76.3767 59.7043 76.3732 59.7087C75.349 61.052 74.7705 62.5768 74.6974 64.1315C74.5987 66.2356 75.4326 68.3677 77.0462 70.1349C77.3221 70.4371 77.622 70.7179 77.9399 70.9714L82.6251 70.6063C84.3119 70.4749 85.9889 70.9752 87.3395 72.0116C87.8448 71.8296 88.2976 71.6338 88.7786 71.3927C91.1557 70.1977 93.3828 68.0524 93.8486 65.3073C93.8981 65.0159 93.8908 64.9932 93.8699 64.7348C93.7022 62.6586 92.4459 60.586 90.438 58.989C88.7279 57.629 86.83 56.8061 84.6862 56.4808C83.4928 56.2994 82.3215 56.398 81.2427 56.6263C81.0071 56.6763 80.7682 56.5361 80.7004 56.2968C79.2788 51.2769 75.5943 41.7506 70.8014 37.8881C70.7026 37.8084 70.6545 37.6921 70.622 37.6572C69.4352 36.74 68.1459 36.1485 66.7939 36.1485C65.7364 36.1485 64.6725 36.5132 63.6318 37.2325C62.6891 37.8844 62.1684 38.7377 62.1655 39.6354C62.1628 40.4835 62.6386 41.3504 63.5412 42.1429C69.3106 47.2086 73.2661 52.2675 76.5589 59.0426C76.6381 59.2056 76.6167 59.4001 76.5035 59.5415C76.4627 59.5926 76.4226 59.644 76.3833 59.6956L76.3832 59.6956ZM78.6015 57.7874C78.9956 57.7874 79.4218 57.2891 79.2414 56.7573C78.4724 54.4889 77.4596 51.9965 76.4243 49.8775C75.1281 47.2237 71.5759 40.6287 67.703 40.2487C66.695 40.1498 65.7766 40.4972 64.9157 41.0924C64.7044 41.2387 64.6504 41.5299 64.7956 41.7428C64.9407 41.9559 65.23 42.0101 65.4413 41.864C66.1188 41.3956 66.8303 41.1031 67.6129 41.18C68.7627 41.2928 70.0336 42.1313 71.3906 43.6724C74.4301 47.1242 76.8807 52.7297 78.3232 56.9447C77.9675 57.2126 78.1578 57.7874 78.6015 57.7874H78.6015ZM71.3021 36.9979C73.0342 38.3682 74.6615 40.4575 76.1353 42.9427C79.0731 47.8968 80.8548 53.4241 81.4755 55.5372C82.403 55.3843 83.3511 55.367 84.2963 55.466C84.2793 53.5631 84.1173 49.1756 83.1073 44.2897C81.9632 38.7542 79.5299 31.9353 74.7593 31.9353C74.1007 31.9353 73.401 32.0654 72.6798 32.3221C71.6017 32.7058 70.8797 33.3943 70.6462 34.2609C70.4291 35.0672 70.6557 36.0128 71.3021 36.9979H71.3021ZM88.1242 72.713C89.2451 73.8746 89.9204 75.3736 90.046 77.0086C90.1598 78.4899 89.2632 79.8841 87.9308 80.3574C87.3943 81.8189 86.5938 83.3083 85.6615 84.5935L90.7443 84.0415L93.7967 83.7099C94.6495 83.6176 95.4889 83.8605 96.1083 84.4188C96.1326 84.4408 96.4532 84.7618 96.4719 84.8171C96.4727 84.8199 96.7511 85.221 96.7718 85.3127L96.9044 85.6376C97.1034 86.2198 97.0724 86.6391 97.0724 87.2615C98.1934 87.068 99.1718 86.4288 99.6954 85.5238C99.7787 85.3799 99.9314 85.2914 100.097 85.2914H101.543C102.376 85.2914 103.053 85.974 103.053 86.8132C103.053 88.0543 104.056 89.064 105.288 89.064C106.52 89.064 107.523 88.0543 107.523 86.8132C107.523 83.5063 104.849 80.7895 101.543 80.7895C99.7348 80.7895 97.9266 80.7895 96.1184 80.7895C95.862 80.7895 95.654 80.5801 95.654 80.3216C95.654 80.0633 95.862 79.8539 96.1184 79.8539H97.3231C95.3931 75.884 96.2009 71.638 99.5716 68.8902C99.4651 68.4061 99.3531 67.9266 99.2358 67.4519C98.025 66.2707 96.4971 65.2369 94.7733 64.429C94.7854 64.5345 94.829 64.9955 94.8134 65.1236C94.3769 68.7235 91.3266 71.4212 88.1242 72.713V72.713ZM101.701 79.8558C104.46 79.9177 106.898 81.6386 107.934 84.1704L108.807 84.0478C112.195 83.4508 114.977 81.5101 115.936 78.9901C116.388 76.8903 115.699 74.4526 114.044 72.2967C112.063 69.7168 108.96 67.808 105.686 67.6722C105.483 67.6638 105.377 67.5357 105.374 67.5357C105.207 67.3522 105.238 67.1987 105.228 66.9549C105.007 61.6368 103.635 51.3365 99.7489 46.6287C97.8711 44.3539 95.684 43.7353 93.1813 44.6825C92.111 45.0875 91.4025 45.7902 91.1859 46.6614C90.9817 47.4839 91.2372 48.4407 91.925 49.428C94.411 52.9975 96.3196 56.4242 97.7599 59.9039C98.6708 62.1049 99.448 64.4815 100.079 66.9917C100.133 67.0774 100.156 67.1768 100.149 67.2746C100.287 67.8358 100.418 68.4039 100.542 68.9782C100.58 69.1555 100.513 69.3393 100.369 69.4492C97.0298 72.0117 96.3253 76.0885 98.3692 79.8539H101.543C101.596 79.8539 101.649 79.8548 101.701 79.8558L101.701 79.8558ZM101.707 60.1565C102.194 62.4021 102.568 64.9491 102.776 67.2763C102.313 67.4735 102.453 68.1753 102.956 68.1753C103.379 68.1753 103.752 67.7802 103.712 67.3162C103.332 62.9213 102.273 56.5918 100.026 52.282C98.7658 49.8644 97.1179 48.1279 94.9186 48.3152C94.6631 48.3371 94.4734 48.5635 94.4951 48.821C94.5168 49.0785 94.7411 49.2689 94.9969 49.2478C95.4015 49.213 95.7721 49.258 96.1293 49.385C99.3531 50.5309 101.177 57.7147 101.707 60.1565V60.1565ZM100.787 46.4421C104.464 51.333 105.891 60.8914 106.149 66.762C107.064 66.8356 107.987 67.0411 108.905 67.3752C109.608 64.4324 110.349 59.9254 110.451 55.5058C110.574 50.1767 109.748 46.2057 108.064 44.0219C106.813 42.401 105.165 41.811 103.156 42.0091C102.018 42.1212 101.153 42.6153 100.721 43.4002C100.312 44.1416 100.313 45.1323 100.724 46.2653L100.787 46.4421ZM111.481 84.2666C110.699 84.5756 109.867 84.81 109.013 84.9624C109.153 86.0681 110.094 86.9254 111.229 86.9254C112.461 86.9254 113.464 85.9157 113.464 84.6745C113.464 84.226 113.414 83.7821 113.317 83.349C112.746 83.7032 112.131 84.0105 111.481 84.2666V84.2666Z"/>
</mask>
<path fill-rule="evenodd" clip-rule="evenodd" d="M111.229 87.8613C110.008 87.8613 108.946 87.1602 108.419 86.1366C108.44 86.3591 108.452 86.5848 108.452 86.8132C108.452 88.5703 107.032 90 105.288 90C103.544 90 102.125 88.5703 102.125 86.8132C102.125 86.4954 101.858 86.2272 101.543 86.2272H100.353C99.6398 87.2875 98.4285 88.0163 97.0724 88.2082V88.8062C97.0724 89.4126 96.5832 89.9061 95.9819 89.9061H77.706C77.6614 89.9061 77.6181 89.8996 77.5769 89.8877C77.5124 89.8996 77.4462 89.9061 77.3784 89.9061H57.4572C55.8144 89.9061 54.737 88.1774 55.4341 86.69C55.2374 86.6543 55.0435 86.6109 54.8525 86.56C54.8155 86.5738 54.7762 86.5833 54.7355 86.5872C51.2368 86.9307 47.6158 84.7155 46.4041 81.5636C45.5346 79.3017 46.0907 77.0347 47.8556 75.6472C47.9562 75.5682 48.0846 75.5341 48.211 75.5534C48.7914 75.6421 49.4175 75.6952 50.1549 75.7407C50.8558 74.415 51.9417 73.3122 53.2841 72.6023C54.4927 68.12 57.1497 64.082 61.0815 61.7954C63.5686 60.3489 66.1787 59.3694 68.839 58.8843C71.12 58.4685 73.3752 58.4462 75.4095 58.8151C72.2203 52.4501 68.4168 47.6652 62.9309 42.8483C61.8189 41.8721 61.233 40.7601 61.2366 39.6325C61.2403 38.4181 61.9042 37.2917 63.1061 36.4611C65.2664 34.9678 67.5339 34.81 69.8094 36.0134C69.1965 33.9559 70.2642 32.1894 72.3705 31.44C74.8928 30.542 77.2385 30.9951 79.2294 33.0157C83.784 37.6381 85.203 49.309 85.2267 55.601C89.2795 56.3518 93.4495 59.3198 94.553 63.3061C96.1342 63.9836 97.5792 64.8425 98.8102 65.832C97.1911 60.0292 94.7813 55.1586 91.1644 49.9653C90.3172 48.7491 90.0131 47.5281 90.2847 46.434C90.5775 45.256 91.4899 44.323 92.8546 43.8066C95.248 42.9007 97.5152 43.2268 99.4983 45.0156C99.3354 42.816 100.791 41.302 103.066 41.0778C105.386 40.8492 107.355 41.5782 108.797 43.4476C110.641 45.837 111.51 49.9014 111.38 55.5276C111.274 60.0885 110.499 64.7418 109.775 67.7312C111.675 68.5939 113.436 69.9758 114.778 71.7243C116.612 74.1121 117.362 76.8463 116.836 79.2258C116.831 79.2474 116.825 79.2687 116.817 79.2891C116.316 80.6282 115.397 81.8219 114.134 82.7868C114.306 83.3992 114.393 84.0327 114.393 84.6745C114.393 86.4317 112.973 87.8613 111.229 87.8613V87.8613ZM78.7341 77.9161C78.0101 77.9161 77.4374 77.7615 77.0086 77.5737C75.9724 77.1198 75.5138 76.37 75.4946 76.3384C75.362 76.1172 75.4323 75.8295 75.6519 75.6959C75.8704 75.5627 76.1545 75.6325 76.2881 75.8517C76.3481 75.9479 77.7163 78.046 81.4365 76.2774L81.6113 76.2329L83.0414 76.1215C83.8681 76.0571 84.6001 76.6899 84.6641 77.5214C84.7722 78.9302 86.1398 79.879 87.4559 79.5263C88.474 79.2603 89.2049 78.1862 89.1197 77.0807C88.8645 73.7577 85.9654 71.2847 82.6967 71.5391L77.8332 71.9182C77.7205 71.9274 77.6081 71.8939 77.5176 71.8251C77.1041 71.5108 76.7155 71.1552 76.3623 70.7684C74.5798 68.8157 73.6589 66.4431 73.7696 64.0872C73.841 62.5668 74.3387 61.0774 75.2183 59.7305C70.9805 58.9604 66.0418 59.9911 61.5458 62.6059C58.2551 64.5198 55.6823 67.9576 54.389 72.1283C54.5222 72.0838 54.6568 72.0423 54.7935 72.0051C55.0411 71.9372 55.2962 72.0846 55.3634 72.334C55.4305 72.5834 55.2843 72.8405 55.0368 72.9081C54.5739 73.0345 54.2868 73.1557 53.8668 73.3533C52.5958 73.9834 51.5733 75.0104 50.9358 76.2548C50.9324 76.3171 50.9164 76.379 50.8879 76.4367C48.8139 80.6395 51.7476 85.5443 56.3043 85.8565C56.7124 85.8845 56.8875 86.3959 56.5829 86.6714C55.697 87.4731 56.2578 88.9703 57.4573 88.9703H77.3785C77.4675 88.9703 77.5399 88.8967 77.5399 88.8062V86.7438C77.5383 85.483 76.5555 84.5971 75.2928 84.7341L72.9921 84.984C72.8894 84.995 72.7896 84.9713 72.7057 84.9213L66.0615 85.6428C65.6464 85.6878 65.3874 85.1959 65.6573 84.875C67.778 82.3557 69.6324 78.2555 69.0736 75.2935C68.8231 73.9651 68.108 72.9743 66.9484 72.3482C66.7222 72.226 66.6371 71.9426 66.7583 71.7147C66.8796 71.4871 67.1609 71.4012 67.3872 71.5232C68.8064 72.2895 69.6808 73.4992 69.9863 75.1189C70.5599 78.1589 68.9685 81.9599 67.0577 84.5935L72.9978 83.9483C73.1785 83.8443 73.3605 83.7392 73.5436 83.6325C75.6205 82.4248 78.8717 79.8095 80.4988 77.6417C79.8332 77.8389 79.246 77.9162 78.7342 77.9162L78.7341 77.9161ZM49.2782 79.3025C49.2746 78.3785 49.4398 77.4835 49.7476 76.6519C49.2138 76.615 48.7331 76.5711 48.2774 76.5086C46.9675 77.6417 46.5802 79.4303 47.2704 81.2256C48.0623 83.2854 50.1185 84.9351 52.3987 85.4874C50.4181 84.055 49.2576 81.774 49.2782 79.3025V79.3025ZM75.159 83.7135C76.0578 83.6158 76.8739 83.8502 77.5046 84.4188C78.1174 84.9717 78.4688 85.7872 78.4688 86.6564L78.469 88.8999C78.469 88.9234 78.4682 88.9469 78.4668 88.9703H95.9819C96.0709 88.9703 96.1435 88.8967 96.1435 88.8062V86.6564C96.1435 85.3803 95.1519 84.5037 93.8963 84.6402L84.6648 85.6428C84.2496 85.6878 83.991 85.1958 84.261 84.8749C85.3059 83.6336 86.2321 82.0843 86.8653 80.5345C85.2353 80.5221 83.864 79.2347 83.7378 77.5934C83.7139 77.2812 83.4292 77.0298 83.113 77.0545L81.9293 77.1467C80.7576 79.3102 77.5763 82.0739 75.159 83.7134V83.7135ZM76.3832 59.6956C76.3799 59.7001 76.3767 59.7043 76.3732 59.7087C75.349 61.052 74.7705 62.5768 74.6974 64.1315C74.5987 66.2356 75.4326 68.3677 77.0462 70.1349C77.3221 70.4371 77.622 70.7179 77.9399 70.9714L82.6251 70.6063C84.3119 70.4749 85.9889 70.9752 87.3395 72.0116C87.8448 71.8296 88.2976 71.6338 88.7786 71.3927C91.1557 70.1977 93.3828 68.0524 93.8486 65.3073C93.8981 65.0159 93.8908 64.9932 93.8699 64.7348C93.7022 62.6586 92.4459 60.586 90.438 58.989C88.7279 57.629 86.83 56.8061 84.6862 56.4808C83.4928 56.2994 82.3215 56.398 81.2427 56.6263C81.0071 56.6763 80.7682 56.5361 80.7004 56.2968C79.2788 51.2769 75.5943 41.7506 70.8014 37.8881C70.7026 37.8084 70.6545 37.6921 70.622 37.6572C69.4352 36.74 68.1459 36.1485 66.7939 36.1485C65.7364 36.1485 64.6725 36.5132 63.6318 37.2325C62.6891 37.8844 62.1684 38.7377 62.1655 39.6354C62.1628 40.4835 62.6386 41.3504 63.5412 42.1429C69.3106 47.2086 73.2661 52.2675 76.5589 59.0426C76.6381 59.2056 76.6167 59.4001 76.5035 59.5415C76.4627 59.5926 76.4226 59.644 76.3833 59.6956L76.3832 59.6956ZM78.6015 57.7874C78.9956 57.7874 79.4218 57.2891 79.2414 56.7573C78.4724 54.4889 77.4596 51.9965 76.4243 49.8775C75.1281 47.2237 71.5759 40.6287 67.703 40.2487C66.695 40.1498 65.7766 40.4972 64.9157 41.0924C64.7044 41.2387 64.6504 41.5299 64.7956 41.7428C64.9407 41.9559 65.23 42.0101 65.4413 41.864C66.1188 41.3956 66.8303 41.1031 67.6129 41.18C68.7627 41.2928 70.0336 42.1313 71.3906 43.6724C74.4301 47.1242 76.8807 52.7297 78.3232 56.9447C77.9675 57.2126 78.1578 57.7874 78.6015 57.7874H78.6015ZM71.3021 36.9979C73.0342 38.3682 74.6615 40.4575 76.1353 42.9427C79.0731 47.8968 80.8548 53.4241 81.4755 55.5372C82.403 55.3843 83.3511 55.367 84.2963 55.466C84.2793 53.5631 84.1173 49.1756 83.1073 44.2897C81.9632 38.7542 79.5299 31.9353 74.7593 31.9353C74.1007 31.9353 73.401 32.0654 72.6798 32.3221C71.6017 32.7058 70.8797 33.3943 70.6462 34.2609C70.4291 35.0672 70.6557 36.0128 71.3021 36.9979H71.3021ZM88.1242 72.713C89.2451 73.8746 89.9204 75.3736 90.046 77.0086C90.1598 78.4899 89.2632 79.8841 87.9308 80.3574C87.3943 81.8189 86.5938 83.3083 85.6615 84.5935L90.7443 84.0415L93.7967 83.7099C94.6495 83.6176 95.4889 83.8605 96.1083 84.4188C96.1326 84.4408 96.4532 84.7618 96.4719 84.8171C96.4727 84.8199 96.7511 85.221 96.7718 85.3127L96.9044 85.6376C97.1034 86.2198 97.0724 86.6391 97.0724 87.2615C98.1934 87.068 99.1718 86.4288 99.6954 85.5238C99.7787 85.3799 99.9314 85.2914 100.097 85.2914H101.543C102.376 85.2914 103.053 85.974 103.053 86.8132C103.053 88.0543 104.056 89.064 105.288 89.064C106.52 89.064 107.523 88.0543 107.523 86.8132C107.523 83.5063 104.849 80.7895 101.543 80.7895C99.7348 80.7895 97.9266 80.7895 96.1184 80.7895C95.862 80.7895 95.654 80.5801 95.654 80.3216C95.654 80.0633 95.862 79.8539 96.1184 79.8539H97.3231C95.3931 75.884 96.2009 71.638 99.5716 68.8902C99.4651 68.4061 99.3531 67.9266 99.2358 67.4519C98.025 66.2707 96.4971 65.2369 94.7733 64.429C94.7854 64.5345 94.829 64.9955 94.8134 65.1236C94.3769 68.7235 91.3266 71.4212 88.1242 72.713V72.713ZM101.701 79.8558C104.46 79.9177 106.898 81.6386 107.934 84.1704L108.807 84.0478C112.195 83.4508 114.977 81.5101 115.936 78.9901C116.388 76.8903 115.699 74.4526 114.044 72.2967C112.063 69.7168 108.96 67.808 105.686 67.6722C105.483 67.6638 105.377 67.5357 105.374 67.5357C105.207 67.3522 105.238 67.1987 105.228 66.9549C105.007 61.6368 103.635 51.3365 99.7489 46.6287C97.8711 44.3539 95.684 43.7353 93.1813 44.6825C92.111 45.0875 91.4025 45.7902 91.1859 46.6614C90.9817 47.4839 91.2372 48.4407 91.925 49.428C94.411 52.9975 96.3196 56.4242 97.7599 59.9039C98.6708 62.1049 99.448 64.4815 100.079 66.9917C100.133 67.0774 100.156 67.1768 100.149 67.2746C100.287 67.8358 100.418 68.4039 100.542 68.9782C100.58 69.1555 100.513 69.3393 100.369 69.4492C97.0298 72.0117 96.3253 76.0885 98.3692 79.8539H101.543C101.596 79.8539 101.649 79.8548 101.701 79.8558L101.701 79.8558ZM101.707 60.1565C102.194 62.4021 102.568 64.9491 102.776 67.2763C102.313 67.4735 102.453 68.1753 102.956 68.1753C103.379 68.1753 103.752 67.7802 103.712 67.3162C103.332 62.9213 102.273 56.5918 100.026 52.282C98.7658 49.8644 97.1179 48.1279 94.9186 48.3152C94.6631 48.3371 94.4734 48.5635 94.4951 48.821C94.5168 49.0785 94.7411 49.2689 94.9969 49.2478C95.4015 49.213 95.7721 49.258 96.1293 49.385C99.3531 50.5309 101.177 57.7147 101.707 60.1565V60.1565ZM100.787 46.4421C104.464 51.333 105.891 60.8914 106.149 66.762C107.064 66.8356 107.987 67.0411 108.905 67.3752C109.608 64.4324 110.349 59.9254 110.451 55.5058C110.574 50.1767 109.748 46.2057 108.064 44.0219C106.813 42.401 105.165 41.811 103.156 42.0091C102.018 42.1212 101.153 42.6153 100.721 43.4002C100.312 44.1416 100.313 45.1323 100.724 46.2653L100.787 46.4421ZM111.481 84.2666C110.699 84.5756 109.867 84.81 109.013 84.9624C109.153 86.0681 110.094 86.9254 111.229 86.9254C112.461 86.9254 113.464 85.9157 113.464 84.6745C113.464 84.226 113.414 83.7821 113.317 83.349C112.746 83.7032 112.131 84.0105 111.481 84.2666V84.2666Z" fill="#4B4B4B"/>
<path fill-rule="evenodd" clip-rule="evenodd" d="M111.229 87.8613C110.008 87.8613 108.946 87.1602 108.419 86.1366C108.44 86.3591 108.452 86.5848 108.452 86.8132C108.452 88.5703 107.032 90 105.288 90C103.544 90 102.125 88.5703 102.125 86.8132C102.125 86.4954 101.858 86.2272 101.543 86.2272H100.353C99.6398 87.2875 98.4285 88.0163 97.0724 88.2082V88.8062C97.0724 89.4126 96.5832 89.9061 95.9819 89.9061H77.706C77.6614 89.9061 77.6181 89.8996 77.5769 89.8877C77.5124 89.8996 77.4462 89.9061 77.3784 89.9061H57.4572C55.8144 89.9061 54.737 88.1774 55.4341 86.69C55.2374 86.6543 55.0435 86.6109 54.8525 86.56C54.8155 86.5738 54.7762 86.5833 54.7355 86.5872C51.2368 86.9307 47.6158 84.7155 46.4041 81.5636C45.5346 79.3017 46.0907 77.0347 47.8556 75.6472C47.9562 75.5682 48.0846 75.5341 48.211 75.5534C48.7914 75.6421 49.4175 75.6952 50.1549 75.7407C50.8558 74.415 51.9417 73.3122 53.2841 72.6023C54.4927 68.12 57.1497 64.082 61.0815 61.7954C63.5686 60.3489 66.1787 59.3694 68.839 58.8843C71.12 58.4685 73.3752 58.4462 75.4095 58.8151C72.2203 52.4501 68.4168 47.6652 62.9309 42.8483C61.8189 41.8721 61.233 40.7601 61.2366 39.6325C61.2403 38.4181 61.9042 37.2917 63.1061 36.4611C65.2664 34.9678 67.5339 34.81 69.8094 36.0134C69.1965 33.9559 70.2642 32.1894 72.3705 31.44C74.8928 30.542 77.2385 30.9951 79.2294 33.0157C83.784 37.6381 85.203 49.309 85.2267 55.601C89.2795 56.3518 93.4495 59.3198 94.553 63.3061C96.1342 63.9836 97.5792 64.8425 98.8102 65.832C97.1911 60.0292 94.7813 55.1586 91.1644 49.9653C90.3172 48.7491 90.0131 47.5281 90.2847 46.434C90.5775 45.256 91.4899 44.323 92.8546 43.8066C95.248 42.9007 97.5152 43.2268 99.4983 45.0156C99.3354 42.816 100.791 41.302 103.066 41.0778C105.386 40.8492 107.355 41.5782 108.797 43.4476C110.641 45.837 111.51 49.9014 111.38 55.5276C111.274 60.0885 110.499 64.7418 109.775 67.7312C111.675 68.5939 113.436 69.9758 114.778 71.7243C116.612 74.1121 117.362 76.8463 116.836 79.2258C116.831 79.2474 116.825 79.2687 116.817 79.2891C116.316 80.6282 115.397 81.8219 114.134 82.7868C114.306 83.3992 114.393 84.0327 114.393 84.6745C114.393 86.4317 112.973 87.8613 111.229 87.8613V87.8613ZM78.7341 77.9161C78.0101 77.9161 77.4374 77.7615 77.0086 77.5737C75.9724 77.1198 75.5138 76.37 75.4946 76.3384C75.362 76.1172 75.4323 75.8295 75.6519 75.6959C75.8704 75.5627 76.1545 75.6325 76.2881 75.8517C76.3481 75.9479 77.7163 78.046 81.4365 76.2774L81.6113 76.2329L83.0414 76.1215C83.8681 76.0571 84.6001 76.6899 84.6641 77.5214C84.7722 78.9302 86.1398 79.879 87.4559 79.5263C88.474 79.2603 89.2049 78.1862 89.1197 77.0807C88.8645 73.7577 85.9654 71.2847 82.6967 71.5391L77.8332 71.9182C77.7205 71.9274 77.6081 71.8939 77.5176 71.8251C77.1041 71.5108 76.7155 71.1552 76.3623 70.7684C74.5798 68.8157 73.6589 66.4431 73.7696 64.0872C73.841 62.5668 74.3387 61.0774 75.2183 59.7305C70.9805 58.9604 66.0418 59.9911 61.5458 62.6059C58.2551 64.5198 55.6823 67.9576 54.389 72.1283C54.5222 72.0838 54.6568 72.0423 54.7935 72.0051C55.0411 71.9372 55.2962 72.0846 55.3634 72.334C55.4305 72.5834 55.2843 72.8405 55.0368 72.9081C54.5739 73.0345 54.2868 73.1557 53.8668 73.3533C52.5958 73.9834 51.5733 75.0104 50.9358 76.2548C50.9324 76.3171 50.9164 76.379 50.8879 76.4367C48.8139 80.6395 51.7476 85.5443 56.3043 85.8565C56.7124 85.8845 56.8875 86.3959 56.5829 86.6714C55.697 87.4731 56.2578 88.9703 57.4573 88.9703H77.3785C77.4675 88.9703 77.5399 88.8967 77.5399 88.8062V86.7438C77.5383 85.483 76.5555 84.5971 75.2928 84.7341L72.9921 84.984C72.8894 84.995 72.7896 84.9713 72.7057 84.9213L66.0615 85.6428C65.6464 85.6878 65.3874 85.1959 65.6573 84.875C67.778 82.3557 69.6324 78.2555 69.0736 75.2935C68.8231 73.9651 68.108 72.9743 66.9484 72.3482C66.7222 72.226 66.6371 71.9426 66.7583 71.7147C66.8796 71.4871 67.1609 71.4012 67.3872 71.5232C68.8064 72.2895 69.6808 73.4992 69.9863 75.1189C70.5599 78.1589 68.9685 81.9599 67.0577 84.5935L72.9978 83.9483C73.1785 83.8443 73.3605 83.7392 73.5436 83.6325C75.6205 82.4248 78.8717 79.8095 80.4988 77.6417C79.8332 77.8389 79.246 77.9162 78.7342 77.9162L78.7341 77.9161ZM49.2782 79.3025C49.2746 78.3785 49.4398 77.4835 49.7476 76.6519C49.2138 76.615 48.7331 76.5711 48.2774 76.5086C46.9675 77.6417 46.5802 79.4303 47.2704 81.2256C48.0623 83.2854 50.1185 84.9351 52.3987 85.4874C50.4181 84.055 49.2576 81.774 49.2782 79.3025V79.3025ZM75.159 83.7135C76.0578 83.6158 76.8739 83.8502 77.5046 84.4188C78.1174 84.9717 78.4688 85.7872 78.4688 86.6564L78.469 88.8999C78.469 88.9234 78.4682 88.9469 78.4668 88.9703H95.9819C96.0709 88.9703 96.1435 88.8967 96.1435 88.8062V86.6564C96.1435 85.3803 95.1519 84.5037 93.8963 84.6402L84.6648 85.6428C84.2496 85.6878 83.991 85.1958 84.261 84.8749C85.3059 83.6336 86.2321 82.0843 86.8653 80.5345C85.2353 80.5221 83.864 79.2347 83.7378 77.5934C83.7139 77.2812 83.4292 77.0298 83.113 77.0545L81.9293 77.1467C80.7576 79.3102 77.5763 82.0739 75.159 83.7134V83.7135ZM76.3832 59.6956C76.3799 59.7001 76.3767 59.7043 76.3732 59.7087C75.349 61.052 74.7705 62.5768 74.6974 64.1315C74.5987 66.2356 75.4326 68.3677 77.0462 70.1349C77.3221 70.4371 77.622 70.7179 77.9399 70.9714L82.6251 70.6063C84.3119 70.4749 85.9889 70.9752 87.3395 72.0116C87.8448 71.8296 88.2976 71.6338 88.7786 71.3927C91.1557 70.1977 93.3828 68.0524 93.8486 65.3073C93.8981 65.0159 93.8908 64.9932 93.8699 64.7348C93.7022 62.6586 92.4459 60.586 90.438 58.989C88.7279 57.629 86.83 56.8061 84.6862 56.4808C83.4928 56.2994 82.3215 56.398 81.2427 56.6263C81.0071 56.6763 80.7682 56.5361 80.7004 56.2968C79.2788 51.2769 75.5943 41.7506 70.8014 37.8881C70.7026 37.8084 70.6545 37.6921 70.622 37.6572C69.4352 36.74 68.1459 36.1485 66.7939 36.1485C65.7364 36.1485 64.6725 36.5132 63.6318 37.2325C62.6891 37.8844 62.1684 38.7377 62.1655 39.6354C62.1628 40.4835 62.6386 41.3504 63.5412 42.1429C69.3106 47.2086 73.2661 52.2675 76.5589 59.0426C76.6381 59.2056 76.6167 59.4001 76.5035 59.5415C76.4627 59.5926 76.4226 59.644 76.3833 59.6956L76.3832 59.6956ZM78.6015 57.7874C78.9956 57.7874 79.4218 57.2891 79.2414 56.7573C78.4724 54.4889 77.4596 51.9965 76.4243 49.8775C75.1281 47.2237 71.5759 40.6287 67.703 40.2487C66.695 40.1498 65.7766 40.4972 64.9157 41.0924C64.7044 41.2387 64.6504 41.5299 64.7956 41.7428C64.9407 41.9559 65.23 42.0101 65.4413 41.864C66.1188 41.3956 66.8303 41.1031 67.6129 41.18C68.7627 41.2928 70.0336 42.1313 71.3906 43.6724C74.4301 47.1242 76.8807 52.7297 78.3232 56.9447C77.9675 57.2126 78.1578 57.7874 78.6015 57.7874H78.6015ZM71.3021 36.9979C73.0342 38.3682 74.6615 40.4575 76.1353 42.9427C79.0731 47.8968 80.8548 53.4241 81.4755 55.5372C82.403 55.3843 83.3511 55.367 84.2963 55.466C84.2793 53.5631 84.1173 49.1756 83.1073 44.2897C81.9632 38.7542 79.5299 31.9353 74.7593 31.9353C74.1007 31.9353 73.401 32.0654 72.6798 32.3221C71.6017 32.7058 70.8797 33.3943 70.6462 34.2609C70.4291 35.0672 70.6557 36.0128 71.3021 36.9979H71.3021ZM88.1242 72.713C89.2451 73.8746 89.9204 75.3736 90.046 77.0086C90.1598 78.4899 89.2632 79.8841 87.9308 80.3574C87.3943 81.8189 86.5938 83.3083 85.6615 84.5935L90.7443 84.0415L93.7967 83.7099C94.6495 83.6176 95.4889 83.8605 96.1083 84.4188C96.1326 84.4408 96.4532 84.7618 96.4719 84.8171C96.4727 84.8199 96.7511 85.221 96.7718 85.3127L96.9044 85.6376C97.1034 86.2198 97.0724 86.6391 97.0724 87.2615C98.1934 87.068 99.1718 86.4288 99.6954 85.5238C99.7787 85.3799 99.9314 85.2914 100.097 85.2914H101.543C102.376 85.2914 103.053 85.974 103.053 86.8132C103.053 88.0543 104.056 89.064 105.288 89.064C106.52 89.064 107.523 88.0543 107.523 86.8132C107.523 83.5063 104.849 80.7895 101.543 80.7895C99.7348 80.7895 97.9266 80.7895 96.1184 80.7895C95.862 80.7895 95.654 80.5801 95.654 80.3216C95.654 80.0633 95.862 79.8539 96.1184 79.8539H97.3231C95.3931 75.884 96.2009 71.638 99.5716 68.8902C99.4651 68.4061 99.3531 67.9266 99.2358 67.4519C98.025 66.2707 96.4971 65.2369 94.7733 64.429C94.7854 64.5345 94.829 64.9955 94.8134 65.1236C94.3769 68.7235 91.3266 71.4212 88.1242 72.713V72.713ZM101.701 79.8558C104.46 79.9177 106.898 81.6386 107.934 84.1704L108.807 84.0478C112.195 83.4508 114.977 81.5101 115.936 78.9901C116.388 76.8903 115.699 74.4526 114.044 72.2967C112.063 69.7168 108.96 67.808 105.686 67.6722C105.483 67.6638 105.377 67.5357 105.374 67.5357C105.207 67.3522 105.238 67.1987 105.228 66.9549C105.007 61.6368 103.635 51.3365 99.7489 46.6287C97.8711 44.3539 95.684 43.7353 93.1813 44.6825C92.111 45.0875 91.4025 45.7902 91.1859 46.6614C90.9817 47.4839 91.2372 48.4407 91.925 49.428C94.411 52.9975 96.3196 56.4242 97.7599 59.9039C98.6708 62.1049 99.448 64.4815 100.079 66.9917C100.133 67.0774 100.156 67.1768 100.149 67.2746C100.287 67.8358 100.418 68.4039 100.542 68.9782C100.58 69.1555 100.513 69.3393 100.369 69.4492C97.0298 72.0117 96.3253 76.0885 98.3692 79.8539H101.543C101.596 79.8539 101.649 79.8548 101.701 79.8558L101.701 79.8558ZM101.707 60.1565C102.194 62.4021 102.568 64.9491 102.776 67.2763C102.313 67.4735 102.453 68.1753 102.956 68.1753C103.379 68.1753 103.752 67.7802 103.712 67.3162C103.332 62.9213 102.273 56.5918 100.026 52.282C98.7658 49.8644 97.1179 48.1279 94.9186 48.3152C94.6631 48.3371 94.4734 48.5635 94.4951 48.821C94.5168 49.0785 94.7411 49.2689 94.9969 49.2478C95.4015 49.213 95.7721 49.258 96.1293 49.385C99.3531 50.5309 101.177 57.7147 101.707 60.1565V60.1565ZM100.787 46.4421C104.464 51.333 105.891 60.8914 106.149 66.762C107.064 66.8356 107.987 67.0411 108.905 67.3752C109.608 64.4324 110.349 59.9254 110.451 55.5058C110.574 50.1767 109.748 46.2057 108.064 44.0219C106.813 42.401 105.165 41.811 103.156 42.0091C102.018 42.1212 101.153 42.6153 100.721 43.4002C100.312 44.1416 100.313 45.1323 100.724 46.2653L100.787 46.4421ZM111.481 84.2666C110.699 84.5756 109.867 84.81 109.013 84.9624C109.153 86.0681 110.094 86.9254 111.229 86.9254C112.461 86.9254 113.464 85.9157 113.464 84.6745C113.464 84.226 113.414 83.7821 113.317 83.349C112.746 83.7032 112.131 84.0105 111.481 84.2666V84.2666Z" stroke="#4B4B4B" stroke-width="0.5" mask="url(#path-3-outside-1)"/>
</svg>
