<svg width="164" height="164" viewBox="0 0 164 164" fill="none" xmlns="http://www.w3.org/2000/svg">
<path d="M44.6689 107.792V97.1279H47.7085C48.6802 97.1279 49.4102 97.3647 49.8984 97.8384C50.3916 98.312 50.6382 99.0225 50.6382 99.9697C50.6382 100.468 50.5137 100.907 50.2646 101.288C50.0156 101.669 49.6787 101.964 49.2539 102.174C49.7422 102.321 50.1279 102.621 50.4111 103.075C50.6992 103.529 50.8433 104.076 50.8433 104.716C50.8433 105.673 50.5796 106.425 50.0522 106.972C49.5298 107.519 48.7827 107.792 47.811 107.792H44.6689ZM46.0093 102.804V106.642H47.8403C48.3481 106.642 48.751 106.476 49.0488 106.144C49.3467 105.807 49.4956 105.336 49.4956 104.73C49.4956 103.446 48.9536 102.804 47.8696 102.804H46.0093ZM46.0093 101.676H47.7305C48.1943 101.676 48.5679 101.52 48.8511 101.208C49.1392 100.895 49.2832 100.48 49.2832 99.9624C49.2832 99.3765 49.1538 98.9517 48.895 98.688C48.6362 98.4194 48.2407 98.2852 47.7085 98.2852H46.0093V101.676ZM58.8853 98.2852H56.0801V107.792H54.7397V98.2852H51.9419V97.1279H58.8853V98.2852ZM67.1909 103.397C67.1909 104.853 66.8809 105.973 66.2607 106.759C65.6406 107.545 64.7593 107.938 63.6167 107.938C62.5181 107.938 61.6489 107.558 61.0093 106.796C60.3745 106.029 60.0449 104.948 60.0205 103.551V101.544C60.0205 100.119 60.3354 99.0029 60.9653 98.1973C61.5952 97.3867 62.4741 96.9814 63.6021 96.9814C64.7251 96.9814 65.5991 97.3696 66.2241 98.146C66.854 98.9175 67.1763 100.021 67.1909 101.457V103.397ZM65.8506 101.53C65.8506 100.402 65.665 99.5645 65.2939 99.0176C64.9277 98.4658 64.3638 98.1899 63.6021 98.1899C62.8647 98.1899 62.3057 98.4683 61.9248 99.0249C61.5488 99.5815 61.3584 100.402 61.3535 101.486V103.397C61.3535 104.486 61.5415 105.316 61.9175 105.888C62.2983 106.459 62.8647 106.745 63.6167 106.745C64.3687 106.745 64.9253 106.481 65.2866 105.954C65.6479 105.426 65.8359 104.618 65.8506 103.529V101.53ZM70.604 103.617V107.792H69.2637V97.1279H72.6621C73.6533 97.1279 74.4321 97.4258 74.9985 98.0215C75.5649 98.6123 75.8481 99.4009 75.8481 100.387C75.8481 101.413 75.5771 102.204 75.0352 102.76C74.498 103.312 73.7388 103.598 72.7573 103.617H70.604ZM70.604 102.467H72.6621C73.2578 102.467 73.7144 102.289 74.0317 101.933C74.3491 101.576 74.5078 101.066 74.5078 100.402C74.5078 99.7622 74.3442 99.2495 74.0171 98.8638C73.6899 98.478 73.2407 98.2852 72.6694 98.2852H70.604V102.467ZM83.1431 97.1279H84.4834V107.792H83.1431V99.5742L78.9902 107.792H77.6426V97.1279H78.9902V105.346L83.1431 97.1279ZM93.3018 97.1279V107.792H91.9541V103.383C91.2119 103.637 90.4233 103.764 89.5884 103.764C88.5679 103.764 87.8086 103.502 87.3105 102.98C86.8125 102.458 86.5537 101.662 86.5342 100.592V97.1279H87.8818V100.519C87.8867 101.266 88.0186 101.801 88.2773 102.123C88.5361 102.445 88.9731 102.606 89.5884 102.606C90.355 102.606 91.1436 102.477 91.9541 102.218V97.1279H93.3018ZM102.655 107.792H101.307V102.863H97.0151V107.792H95.6748V97.1279H97.0151V101.713H101.307V97.1279H102.655V107.792ZM110.082 105.009H106.478L105.65 107.792H104.273L107.708 97.1279H108.858L112.301 107.792H110.924L110.082 105.009ZM106.83 103.852H109.737L108.28 99.0029L106.83 103.852ZM118.402 107.792V103.639H116.556L114.718 107.792H113.29L115.377 103.229C114.215 102.687 113.634 101.725 113.634 100.343C113.634 99.3423 113.912 98.5586 114.469 97.9922C115.03 97.4209 115.814 97.1328 116.82 97.1279H119.75V107.792H118.402ZM114.981 100.343C114.981 100.988 115.143 101.505 115.465 101.896C115.787 102.282 116.239 102.479 116.82 102.489H118.402V98.2852H116.834C116.229 98.2852 115.768 98.4683 115.45 98.8345C115.138 99.2007 114.981 99.7036 114.981 100.343ZM47.1958 125.792H45.8481V116.285H41.6733V125.792H40.333V115.128H47.1958V125.792ZM54.6958 120.863H50.9238V124.642H55.3184V125.792H49.5835V115.128H55.2451V116.285H50.9238V119.713H54.6958V120.863ZM58.3799 121.617V125.792H57.0396V115.128H60.438C61.4292 115.128 62.208 115.426 62.7744 116.021C63.3408 116.612 63.624 117.401 63.624 118.387C63.624 119.413 63.353 120.204 62.811 120.76C62.2739 121.312 61.5146 121.598 60.5332 121.617H58.3799ZM58.3799 120.467H60.438C61.0337 120.467 61.4902 120.289 61.8076 119.933C62.125 119.576 62.2837 119.066 62.2837 118.402C62.2837 117.762 62.1201 117.25 61.793 116.864C61.4658 116.478 61.0166 116.285 60.4453 116.285H58.3799V120.467ZM70.4722 120.863H66.7002V124.642H71.0947V125.792H65.3599V115.128H71.0215V116.285H66.7002V119.713H70.4722V120.863ZM74.1562 121.617V125.792H72.8159V115.128H76.2144C77.2056 115.128 77.9844 115.426 78.5508 116.021C79.1172 116.612 79.4004 117.401 79.4004 118.387C79.4004 119.413 79.1294 120.204 78.5874 120.76C78.0503 121.312 77.291 121.598 76.3096 121.617H74.1562ZM74.1562 120.467H76.2144C76.8101 120.467 77.2666 120.289 77.584 119.933C77.9014 119.576 78.0601 119.066 78.0601 118.402C78.0601 117.762 77.8965 117.25 77.5693 116.864C77.2422 116.478 76.793 116.285 76.2217 116.285H74.1562V120.467ZM84.835 123.009H81.2314L80.4038 125.792H79.0269L82.4619 115.128H83.6118L87.0542 125.792H85.6772L84.835 123.009ZM81.583 121.852H84.4907L83.0332 117.003L81.583 121.852ZM94.0049 116.285H89.8081V119.479H91.9614C92.9185 119.483 93.668 119.764 94.21 120.321C94.752 120.873 95.0229 121.634 95.0229 122.606C95.0229 123.583 94.7471 124.359 94.1953 124.935C93.6484 125.506 92.8892 125.792 91.9175 125.792H88.4604V115.128H94.0049V116.285ZM89.8081 120.636V124.642H91.9468C92.4937 124.642 92.9185 124.454 93.2212 124.078C93.5239 123.702 93.6753 123.207 93.6753 122.591C93.6753 121.986 93.5239 121.51 93.2212 121.163C92.9233 120.812 92.501 120.636 91.9541 120.636H89.8081ZM103.688 121.397C103.688 122.853 103.377 123.973 102.757 124.759C102.137 125.545 101.256 125.938 100.113 125.938C99.0146 125.938 98.1455 125.558 97.5059 124.796C96.8711 124.029 96.5415 122.948 96.5171 121.551V119.544C96.5171 118.119 96.832 117.003 97.4619 116.197C98.0918 115.387 98.9707 114.981 100.099 114.981C101.222 114.981 102.096 115.37 102.721 116.146C103.351 116.917 103.673 118.021 103.688 119.457V121.397ZM102.347 119.53C102.347 118.402 102.162 117.564 101.791 117.018C101.424 116.466 100.86 116.19 100.099 116.19C99.3613 116.19 98.8022 116.468 98.4214 117.025C98.0454 117.582 97.855 118.402 97.8501 119.486V121.397C97.8501 122.486 98.0381 123.316 98.4141 123.888C98.7949 124.459 99.3613 124.745 100.113 124.745C100.865 124.745 101.422 124.481 101.783 123.954C102.145 123.426 102.333 122.618 102.347 121.529V119.53ZM111.407 116.285H108.602V125.792H107.262V116.285H104.464V115.128H111.407V116.285ZM115.399 121.002H114.388V125.792H113.048V115.128H114.388V119.83H115.208L118.211 115.128H119.881L116.498 120.284L120.13 125.792H118.49L115.399 121.002ZM126.363 123.009H122.76L121.932 125.792H120.555L123.99 115.128H125.14L128.583 125.792H127.206L126.363 123.009ZM123.111 121.852H126.019L124.562 117.003L123.111 121.852Z" fill="#4B4B4B"/>
<path d="M68.2583 52.294L77.5997 36.7249C77.5997 36.7249 81.3529 33.088 84.6411 36.3762L93.3431 51.1314" stroke="#4B4B4B" stroke-width="4" stroke-linejoin="round"/>
<path d="M78.425 79.6367L60.2711 79.3313C60.2711 79.3313 55.2448 77.8994 56.4484 73.4077L64.8758 58.4939" stroke="#4B4B4B" stroke-width="4" stroke-linejoin="round"/>
<path d="M97.021 57.1608L105.833 73.0352C105.833 73.0352 107.107 78.104 102.615 79.3076L85.4854 79.4661" stroke="#4B4B4B" stroke-width="4" stroke-linejoin="round"/>
<path d="M78.501 79.5109L88.919 73.3743V85.4573L78.501 79.5109Z" fill="#4B4B4B"/>
<path d="M58.0491 58.5209L68.4671 52.3843V64.4673L58.0491 58.5209Z" fill="#4B4B4B"/>
<path d="M86.4729 51.2216L96.8909 45.085V57.168L86.4729 51.2216Z" fill="#4B4B4B"/>
</svg>
