<svg width="164" height="164" viewBox="0 0 164 164" fill="none" xmlns="http://www.w3.org/2000/svg">
<path d="M57.1602 77H55.1836V63.0566H49.0605V77H47.0947V61.3594H57.1602V77ZM68.1602 69.7705H62.6279V75.3135H69.0732V77H60.6621V61.3594H68.9658V63.0566H62.6279V68.084H68.1602V69.7705ZM73.5635 70.877V77H71.5977V61.3594H76.582C78.0358 61.3594 79.1781 61.7962 80.0088 62.6699C80.8395 63.5365 81.2549 64.693 81.2549 66.1396C81.2549 67.6436 80.8574 68.8037 80.0625 69.6201C79.2747 70.4294 78.1611 70.8483 76.7217 70.877H73.5635ZM73.5635 69.1904H76.582C77.4557 69.1904 78.1253 68.929 78.5908 68.4062C79.0563 67.8835 79.2891 67.1351 79.2891 66.1611C79.2891 65.223 79.0492 64.471 78.5693 63.9053C78.0895 63.3395 77.4307 63.0566 76.5928 63.0566H73.5635V69.1904ZM83.8008 77V61.3594H88.2588C89.6839 61.3594 90.7546 61.7067 91.4707 62.4014C92.194 63.096 92.5557 64.138 92.5557 65.5273C92.5557 66.2578 92.373 66.9023 92.0078 67.4609C91.6426 68.0195 91.1484 68.4528 90.5254 68.7607C91.2415 68.9756 91.8073 69.416 92.2227 70.082C92.6452 70.748 92.8564 71.5501 92.8564 72.4883C92.8564 73.8919 92.4697 74.9948 91.6963 75.7969C90.93 76.599 89.8343 77 88.4092 77H83.8008ZM85.7666 69.6846V75.3135H88.4521C89.1969 75.3135 89.7878 75.07 90.2246 74.583C90.6615 74.0889 90.8799 73.3978 90.8799 72.5098C90.8799 70.6263 90.085 69.6846 88.4951 69.6846H85.7666ZM85.7666 68.0303H88.291C88.9714 68.0303 89.5192 67.8011 89.9346 67.3428C90.3571 66.8844 90.5684 66.2757 90.5684 65.5166C90.5684 64.6572 90.3786 64.0342 89.999 63.6475C89.6195 63.2536 89.0394 63.0566 88.2588 63.0566H85.7666V68.0303ZM97.8838 67.7402H101.042C102.446 67.7474 103.545 68.1592 104.34 68.9756C105.135 69.7848 105.532 70.902 105.532 72.3271C105.532 73.7594 105.128 74.8981 104.318 75.7432C103.516 76.5811 102.403 77 100.978 77H95.918V61.3594H97.8838V67.7402ZM108.873 77H106.907V61.3594H108.873V77ZM97.8838 69.4375V75.3135H101.021C101.823 75.3135 102.446 75.0378 102.89 74.4863C103.334 73.9349 103.556 73.208 103.556 72.3057C103.556 71.4176 103.334 70.7194 102.89 70.2109C102.453 69.6953 101.833 69.4375 101.031 69.4375H97.8838ZM119.938 69.7705H114.405V75.3135H120.851V77H112.439V61.3594H120.743V63.0566H114.405V68.084H119.938V69.7705ZM37.8457 103V87.3594H42.3037C43.7288 87.3594 44.7995 87.7067 45.5156 88.4014C46.2389 89.096 46.6006 90.138 46.6006 91.5273C46.6006 92.2578 46.418 92.9023 46.0527 93.4609C45.6875 94.0195 45.1934 94.4528 44.5703 94.7607C45.2865 94.9756 45.8522 95.416 46.2676 96.082C46.6901 96.748 46.9014 97.5501 46.9014 98.4883C46.9014 99.8919 46.5146 100.995 45.7412 101.797C44.9749 102.599 43.8792 103 42.4541 103H37.8457ZM39.8115 95.6846V101.313H42.4971C43.2419 101.313 43.8327 101.07 44.2695 100.583C44.7064 100.089 44.9248 99.3978 44.9248 98.5098C44.9248 96.6263 44.1299 95.6846 42.54 95.6846H39.8115ZM39.8115 94.0303H42.3359C43.0163 94.0303 43.5641 93.8011 43.9795 93.3428C44.402 92.8844 44.6133 92.2757 44.6133 91.5166C44.6133 90.6572 44.4235 90.0342 44.0439 89.6475C43.6644 89.2536 43.0843 89.0566 42.3037 89.0566H39.8115V94.0303ZM56.8701 96.877V103H54.9043V87.3594H59.8887C61.3424 87.3594 62.4847 87.7962 63.3154 88.6699C64.1462 89.5365 64.5615 90.693 64.5615 92.1396C64.5615 93.6436 64.1641 94.8037 63.3691 95.6201C62.5814 96.4294 61.4678 96.8483 60.0283 96.877H56.8701ZM56.8701 95.1904H59.8887C60.7624 95.1904 61.432 94.929 61.8975 94.4062C62.363 93.8835 62.5957 93.1351 62.5957 92.1611C62.5957 91.223 62.3558 90.471 61.876 89.9053C61.3962 89.3395 60.7373 89.0566 59.8994 89.0566H56.8701V95.1904ZM77.2803 96.5547C77.2803 98.6888 76.8255 100.332 75.916 101.485C75.0065 102.638 73.7139 103.215 72.0381 103.215C70.4268 103.215 69.152 102.656 68.2139 101.539C67.2829 100.415 66.7995 98.8285 66.7637 96.7803V93.8369C66.7637 91.7458 67.2256 90.1094 68.1494 88.9277C69.0732 87.7389 70.3623 87.1445 72.0166 87.1445C73.6637 87.1445 74.9456 87.7139 75.8623 88.8525C76.7861 89.984 77.2588 91.6025 77.2803 93.708V96.5547ZM75.3145 93.8154C75.3145 92.1611 75.0423 90.9329 74.498 90.1309C73.9609 89.3216 73.1338 88.917 72.0166 88.917C70.9352 88.917 70.1152 89.3252 69.5566 90.1416C69.0052 90.958 68.7259 92.1611 68.7188 93.751V96.5547C68.7188 98.1517 68.9945 99.3691 69.5459 100.207C70.1045 101.045 70.9352 101.464 72.0381 101.464C73.141 101.464 73.9574 101.077 74.4873 100.304C75.0173 99.5303 75.293 98.3451 75.3145 96.748V93.8154ZM90.1279 98.0371C90.042 99.7129 89.5693 100.995 88.71 101.883C87.8577 102.771 86.651 103.215 85.0898 103.215C83.5215 103.215 82.2754 102.62 81.3516 101.432C80.4277 100.236 79.9658 98.6172 79.9658 96.5762V93.7402C79.9658 91.7064 80.4385 90.0986 81.3838 88.917C82.3363 87.7354 83.6325 87.1445 85.2725 87.1445C86.7835 87.1445 87.9508 87.5993 88.7744 88.5088C89.6051 89.4111 90.0563 90.7038 90.1279 92.3867H88.1406C88.0547 91.112 87.7861 90.2025 87.335 89.6582C86.8838 89.1139 86.1963 88.8418 85.2725 88.8418C84.2054 88.8418 83.3854 89.2607 82.8125 90.0986C82.2396 90.9294 81.9531 92.1504 81.9531 93.7617V96.6299C81.9531 98.2126 82.2181 99.4264 82.748 100.271C83.2852 101.117 84.0658 101.539 85.0898 101.539C86.1139 101.539 86.8516 101.285 87.3027 100.776C87.7539 100.268 88.0332 99.3548 88.1406 98.0371H90.1279ZM102.61 98.0371C102.524 99.7129 102.052 100.995 101.192 101.883C100.34 102.771 99.1335 103.215 97.5723 103.215C96.0039 103.215 94.7578 102.62 93.834 101.432C92.9102 100.236 92.4482 98.6172 92.4482 96.5762V93.7402C92.4482 91.7064 92.9209 90.0986 93.8662 88.917C94.8187 87.7354 96.1149 87.1445 97.7549 87.1445C99.266 87.1445 100.433 87.5993 101.257 88.5088C102.088 89.4111 102.539 90.7038 102.61 92.3867H100.623C100.537 91.112 100.269 90.2025 99.8174 89.6582C99.3662 89.1139 98.6787 88.8418 97.7549 88.8418C96.6878 88.8418 95.8678 89.2607 95.2949 90.0986C94.722 90.9294 94.4355 92.1504 94.4355 93.7617V96.6299C94.4355 98.2126 94.7005 99.4264 95.2305 100.271C95.7676 101.117 96.5482 101.539 97.5723 101.539C98.5964 101.539 99.334 101.285 99.7852 100.776C100.236 100.268 100.516 99.3548 100.623 98.0371H102.61ZM113.438 87.3594H115.404V103H113.438V90.9473L107.348 103H105.371V87.3594H107.348V99.4121L113.438 87.3594ZM127.06 87.3594H129.025V103H127.06V90.9473L120.969 103H118.992V87.3594H120.969V99.4121L127.06 87.3594Z" fill="#4B4B4B"/>
</svg>
