<svg width="164" height="164" viewBox="0 0 164 164" fill="none" xmlns="http://www.w3.org/2000/svg">
<circle cx="82" cy="82" r="79" stroke="#FFC500" stroke-width="6"/>
<path d="M49.5156 60.2627C49.4336 61.8623 48.9824 63.0859 48.1621 63.9336C47.3486 64.7812 46.1968 65.2051 44.7065 65.2051C43.2095 65.2051 42.02 64.6377 41.1382 63.5029C40.2563 62.3613 39.8154 60.8164 39.8154 58.8682V56.1611C39.8154 54.2197 40.2666 52.6851 41.1689 51.5571C42.0781 50.4292 43.3154 49.8652 44.8809 49.8652C46.3232 49.8652 47.4375 50.2993 48.2236 51.1675C49.0166 52.0288 49.4473 53.2627 49.5156 54.8691H47.6187C47.5366 53.6523 47.2803 52.7842 46.8496 52.2646C46.4189 51.7451 45.7627 51.4854 44.8809 51.4854C43.8623 51.4854 43.0796 51.8853 42.5327 52.6851C41.9858 53.478 41.7124 54.6436 41.7124 56.1816V58.9194C41.7124 60.4302 41.9653 61.5889 42.4712 62.3955C42.9839 63.2021 43.729 63.6055 44.7065 63.6055C45.6841 63.6055 46.3882 63.3628 46.8188 62.8774C47.2495 62.3921 47.5161 61.5205 47.6187 60.2627H49.5156ZM59.2261 58.0991H53.9453V63.3901H60.0977V65H52.0688V50.0703H59.9951V51.6904H53.9453V56.4893H59.2261V58.0991ZM67.019 58.9604H64.394V65H62.5073V50.0703H66.6909C68.1538 50.0703 69.2612 50.4531 70.0132 51.2188C70.7651 51.9775 71.1411 53.0918 71.1411 54.5615C71.1411 55.4844 70.936 56.291 70.5259 56.9814C70.1226 57.665 69.5483 58.1812 68.8032 58.5298L71.6948 64.877V65H69.6748L67.019 58.9604ZM64.394 57.3506H66.6704C67.4565 57.3506 68.082 57.0977 68.5469 56.5918C69.0186 56.0859 69.2544 55.4092 69.2544 54.5615C69.2544 52.6475 68.3862 51.6904 66.6499 51.6904H64.394V57.3506ZM81.8359 51.6904H77.9087V65H76.0322V51.6904H72.1152V50.0703H81.8359V51.6904ZM85.999 65H84.1226V50.0703H85.999V65ZM96.2119 58.4067H91.167V65H89.2905V50.0703H97.063V51.6904H91.167V56.7969H96.2119V58.4067ZM101.339 65H99.4624V50.0703H101.339V65ZM111.788 58.0991H106.507V63.3901H112.659V65H104.63V50.0703H112.557V51.6904H106.507V56.4893H111.788V58.0991ZM115.069 65V50.0703H118.627C120.37 50.0703 121.724 50.6172 122.688 51.7109C123.651 52.7979 124.133 54.3291 124.133 56.3047V58.8066C124.133 60.7822 123.645 62.3101 122.667 63.3901C121.689 64.4634 120.271 65 118.412 65H115.069ZM116.945 51.6904V63.3901H118.453C119.772 63.3901 120.736 63.0142 121.344 62.2622C121.953 61.5034 122.264 60.3823 122.277 58.8989V56.2534C122.277 54.6812 121.973 53.5293 121.365 52.7979C120.763 52.0596 119.851 51.6904 118.627 51.6904H116.945ZM54.0991 83.8477C54.0991 85.8848 53.665 87.4536 52.7969 88.5542C51.9287 89.6548 50.6948 90.2051 49.0952 90.2051C47.5571 90.2051 46.3403 89.6719 45.4448 88.6055C44.5562 87.5322 44.0947 86.0181 44.0605 84.063V81.2534C44.0605 79.2573 44.5015 77.6953 45.3833 76.5674C46.2651 75.4326 47.4956 74.8652 49.0747 74.8652C50.647 74.8652 51.8706 75.4087 52.7456 76.4956C53.6274 77.5757 54.0786 79.1206 54.0991 81.1304V83.8477ZM52.2227 81.2329C52.2227 79.6538 51.9629 78.4814 51.4434 77.7158C50.9307 76.9434 50.1411 76.5571 49.0747 76.5571C48.0425 76.5571 47.2598 76.9468 46.7266 77.7261C46.2002 78.5054 45.9336 79.6538 45.9268 81.1714V83.8477C45.9268 85.3721 46.1899 86.5342 46.7163 87.334C47.2495 88.1338 48.0425 88.5337 49.0952 88.5337C50.1479 88.5337 50.9272 88.1646 51.4331 87.4263C51.939 86.688 52.2021 85.5566 52.2227 84.0322V81.2329ZM61.5127 83.9604H58.8877V90H57.001V75.0703H61.1846C62.6475 75.0703 63.7549 75.4531 64.5068 76.2188C65.2588 76.9775 65.6348 78.0918 65.6348 79.5615C65.6348 80.4844 65.4297 81.291 65.0195 81.9814C64.6162 82.665 64.042 83.1812 63.2969 83.5298L66.1885 89.877V90H64.1685L61.5127 83.9604ZM58.8877 82.3506H61.1641C61.9502 82.3506 62.5757 82.0977 63.0405 81.5918C63.5122 81.0859 63.748 80.4092 63.748 79.5615C63.748 77.6475 62.8799 76.6904 61.1436 76.6904H58.8877V82.3506ZM77.4985 88.144L77.1704 88.5542C76.2271 89.6548 74.8462 90.2051 73.0278 90.2051C71.4146 90.2051 70.1465 89.6719 69.2236 88.6055C68.3076 87.5322 67.8394 86.0181 67.8188 84.063V81.1304C67.8188 79.0386 68.2358 77.4731 69.0698 76.4341C69.9106 75.3882 71.165 74.8652 72.833 74.8652C74.2549 74.8652 75.3657 75.2617 76.1655 76.0547C76.9722 76.8477 77.4165 77.979 77.4985 79.4487H75.6221C75.5469 78.519 75.2871 77.7944 74.8428 77.2749C74.4053 76.7485 73.7388 76.4854 72.8433 76.4854C71.77 76.4854 70.9839 76.8374 70.4849 77.5415C69.9858 78.2388 69.7261 79.3564 69.7056 80.8945V83.9399C69.7056 85.4438 69.9927 86.5991 70.5669 87.4058C71.1411 88.2056 71.9648 88.6055 73.0381 88.6055C74.0498 88.6055 74.8188 88.3594 75.3452 87.8672L75.6221 87.6108V84.1655H72.8945V82.5659H77.4985V88.144ZM87.5269 86.1035H82.4819L81.3232 90H79.3955L84.2046 75.0703H85.8145L90.6338 90H88.7061L87.5269 86.1035ZM82.9741 84.4834H87.0449L85.0044 77.6953L82.9741 84.4834ZM102.416 90H100.529L94.5508 78.4951V90H92.6641V75.0703H94.5508L100.549 86.6265V75.0703H102.416V90ZM107.625 90H105.748V75.0703H107.625V90ZM120.278 85.2627C120.196 86.8623 119.745 88.0859 118.924 88.9336C118.111 89.7812 116.959 90.2051 115.469 90.2051C113.972 90.2051 112.782 89.6377 111.9 88.5029C111.019 87.3613 110.578 85.8164 110.578 83.8682V81.1611C110.578 79.2197 111.029 77.6851 111.931 76.5571C112.84 75.4292 114.078 74.8652 115.643 74.8652C117.085 74.8652 118.2 75.2993 118.986 76.1675C119.779 77.0288 120.209 78.2627 120.278 79.8691H118.381C118.299 78.6523 118.042 77.7842 117.612 77.2646C117.181 76.7451 116.525 76.4854 115.643 76.4854C114.625 76.4854 113.842 76.8853 113.295 77.6851C112.748 78.478 112.475 79.6436 112.475 81.1816V83.9194C112.475 85.4302 112.728 86.5889 113.233 87.3955C113.746 88.2021 114.491 88.6055 115.469 88.6055C116.446 88.6055 117.15 88.3628 117.581 87.8774C118.012 87.3921 118.278 86.5205 118.381 85.2627H120.278ZM31.0176 115H29.1411V100.07H31.0176V115ZM44.0605 115H42.1738L36.1958 103.495V115H34.3091V100.07H36.1958L42.1943 111.626V100.07H44.0605V115ZM56.6523 113.144L56.3242 113.554C55.3809 114.655 54 115.205 52.1816 115.205C50.5684 115.205 49.3003 114.672 48.3774 113.605C47.4614 112.532 46.9932 111.018 46.9727 109.063V106.13C46.9727 104.039 47.3896 102.473 48.2236 101.434C49.0645 100.388 50.3188 99.8652 51.9868 99.8652C53.4087 99.8652 54.5195 100.262 55.3193 101.055C56.126 101.848 56.5703 102.979 56.6523 104.449H54.7759C54.7007 103.519 54.4409 102.794 53.9966 102.275C53.5591 101.749 52.8926 101.485 51.9971 101.485C50.9238 101.485 50.1377 101.837 49.6387 102.542C49.1396 103.239 48.8799 104.356 48.8594 105.895V108.94C48.8594 110.444 49.1465 111.599 49.7207 112.406C50.2949 113.206 51.1187 113.605 52.1919 113.605C53.2036 113.605 53.9727 113.359 54.499 112.867L54.7759 112.611V109.166H52.0483V107.566H56.6523V113.144ZM64.23 108.96H61.605V115H59.7183V100.07H63.9019C65.3647 100.07 66.4722 100.453 67.2241 101.219C67.9761 101.978 68.3521 103.092 68.3521 104.562C68.3521 105.484 68.147 106.291 67.7368 106.981C67.3335 107.665 66.7593 108.181 66.0142 108.53L68.9058 114.877V115H66.8857L64.23 108.96ZM61.605 107.351H63.8813C64.6675 107.351 65.293 107.098 65.7578 106.592C66.2295 106.086 66.4653 105.409 66.4653 104.562C66.4653 102.647 65.5972 101.69 63.8608 101.69H61.605V107.351ZM72.833 115H70.9565V100.07H72.833V115ZM76.1245 115V100.07H79.6826C81.4258 100.07 82.7793 100.617 83.7432 101.711C84.707 102.798 85.189 104.329 85.189 106.305V108.807C85.189 110.782 84.7002 112.31 83.7227 113.39C82.7451 114.463 81.3267 115 79.4673 115H76.1245ZM78.001 101.69V113.39H79.5083C80.8276 113.39 81.7915 113.014 82.3999 112.262C83.0083 111.503 83.3193 110.382 83.333 108.899V106.253C83.333 104.681 83.0288 103.529 82.4204 102.798C81.8188 102.06 80.9062 101.69 79.6826 101.69H78.001ZM90.0801 115H88.2036V100.07H90.0801V115ZM100.529 108.099H95.248V113.39H101.4V115H93.3716V100.07H101.298V101.69H95.248V106.489H100.529V108.099ZM113.562 115H111.675L105.697 103.495V115H103.81V100.07H105.697L111.695 111.626V100.07H113.562V115ZM125.23 101.69H121.303V115H119.427V101.69H115.51V100.07H125.23V101.69ZM133.792 111.227C133.792 110.481 133.591 109.911 133.188 109.514C132.784 109.118 132.056 108.731 131.003 108.355C129.951 107.979 129.144 107.586 128.583 107.176C128.03 106.759 127.613 106.288 127.333 105.761C127.059 105.228 126.922 104.62 126.922 103.936C126.922 102.753 127.315 101.779 128.102 101.014C128.895 100.248 129.93 99.8652 131.208 99.8652C132.083 99.8652 132.863 100.063 133.546 100.46C134.23 100.85 134.756 101.393 135.125 102.09C135.495 102.788 135.679 103.553 135.679 104.387H133.792C133.792 103.464 133.57 102.75 133.126 102.244C132.682 101.738 132.042 101.485 131.208 101.485C130.45 101.485 129.862 101.697 129.445 102.121C129.028 102.545 128.819 103.14 128.819 103.905C128.819 104.534 129.045 105.061 129.496 105.484C129.947 105.908 130.645 106.288 131.588 106.623C133.058 107.108 134.107 107.706 134.736 108.417C135.372 109.128 135.689 110.058 135.689 111.206C135.689 112.416 135.296 113.387 134.51 114.118C133.724 114.843 132.654 115.205 131.301 115.205C130.433 115.205 129.629 115.017 128.891 114.641C128.16 114.258 127.582 113.725 127.158 113.042C126.741 112.351 126.533 111.562 126.533 110.673H128.419C128.419 111.596 128.676 112.313 129.188 112.826C129.708 113.339 130.412 113.595 131.301 113.595C132.128 113.595 132.75 113.383 133.167 112.959C133.584 112.536 133.792 111.958 133.792 111.227Z" fill="#4B4B4B"/>
</svg>
