<svg width="164" height="164" viewBox="0 0 164 164" fill="none" xmlns="http://www.w3.org/2000/svg">
<path d="M52.0942 53.0195C52.0942 54.6686 51.7428 55.9386 51.04 56.8296C50.3372 57.7205 49.3384 58.166 48.0435 58.166C46.7983 58.166 45.8133 57.7344 45.0884 56.8711C44.369 56.0023 43.9954 54.7765 43.9678 53.1938V50.9194C43.9678 49.3035 44.3247 48.0391 45.0386 47.126C45.7524 46.2074 46.7485 45.748 48.0269 45.748C49.2996 45.748 50.2902 46.188 50.9985 47.0679C51.7124 47.9422 52.0776 49.1929 52.0942 50.8198V53.0195ZM50.5752 50.9028C50.5752 49.6245 50.3649 48.6755 49.9443 48.0557C49.5293 47.4303 48.8901 47.1177 48.0269 47.1177C47.1912 47.1177 46.5576 47.4331 46.126 48.064C45.6999 48.6948 45.484 49.6245 45.4785 50.853V53.0195C45.4785 54.2536 45.6916 55.1943 46.1177 55.8418C46.5493 56.4893 47.1912 56.813 48.0435 56.813C48.8957 56.813 49.5265 56.5142 49.936 55.9165C50.3455 55.3188 50.5586 54.403 50.5752 53.1689V50.9028ZM62.105 56.6968H63.5244L63.5078 60.9634H61.9888V58H54.8501V60.9717H53.3228L53.3145 56.6968H54.2026C54.59 56.2043 54.9054 55.4627 55.1489 54.4722C55.3979 53.4816 55.5557 52.3748 55.6221 51.1519L55.8545 45.9141H62.105V56.6968ZM55.8213 56.6968H60.5776V47.2256H57.332L57.1577 51.127C57.0913 52.4053 56.9391 53.5093 56.7012 54.439C56.4632 55.3631 56.1699 56.1157 55.8213 56.6968ZM73.0454 53.0195C73.0454 54.6686 72.694 55.9386 71.9912 56.8296C71.2884 57.7205 70.2896 58.166 68.9946 58.166C67.7495 58.166 66.7645 57.7344 66.0396 56.8711C65.3201 56.0023 64.9466 54.7765 64.9189 53.1938V50.9194C64.9189 49.3035 65.2759 48.0391 65.9897 47.126C66.7036 46.2074 67.6997 45.748 68.978 45.748C70.2508 45.748 71.2414 46.188 71.9497 47.0679C72.6636 47.9422 73.0288 49.1929 73.0454 50.8198V53.0195ZM71.5264 50.9028C71.5264 49.6245 71.3161 48.6755 70.8955 48.0557C70.4805 47.4303 69.8413 47.1177 68.978 47.1177C68.1424 47.1177 67.5088 47.4331 67.0771 48.064C66.651 48.6948 66.4352 49.6245 66.4297 50.853V53.0195C66.4297 54.2536 66.6427 55.1943 67.0688 55.8418C67.5005 56.4893 68.1424 56.813 68.9946 56.813C69.8468 56.813 70.4777 56.5142 70.8872 55.9165C71.2967 55.3188 71.5098 54.403 71.5264 53.1689V50.9028ZM81.6284 47.2256H76.8721V50.8447H79.3125C80.3971 50.8503 81.2466 51.1685 81.8608 51.7993C82.4751 52.4246 82.7822 53.2879 82.7822 54.3892C82.7822 55.4959 82.4696 56.3758 81.8442 57.0288C81.2244 57.6763 80.3639 58 79.2627 58H75.3447V45.9141H81.6284V47.2256ZM76.8721 52.1562V56.6968H79.2959C79.9157 56.6968 80.3971 56.4837 80.7402 56.0576C81.0833 55.6315 81.2549 55.0698 81.2549 54.3726C81.2549 53.6864 81.0833 53.1468 80.7402 52.7539C80.4027 52.3555 79.924 52.1562 79.3042 52.1562H76.8721ZM86.2603 53.2686V58H84.7412V45.9141H88.5928C89.7161 45.9141 90.5988 46.2516 91.2407 46.9268C91.8826 47.5964 92.2036 48.4901 92.2036 49.6079C92.2036 50.77 91.8965 51.6665 91.2822 52.2974C90.6735 52.9227 89.813 53.2464 88.7007 53.2686H86.2603ZM86.2603 51.9653H88.5928C89.2679 51.9653 89.7853 51.7633 90.145 51.3594C90.5047 50.9554 90.6846 50.3771 90.6846 49.6245C90.6846 48.8996 90.4992 48.3185 90.1284 47.8813C89.7576 47.4442 89.2485 47.2256 88.6011 47.2256H86.2603V51.9653ZM99.9648 52.4136H95.6899V56.6968H100.67V58H94.1709V45.9141H100.587V47.2256H95.6899V51.1104H99.9648V52.4136ZM110.532 58H109.004V52.4136H104.14V58H102.621V45.9141H104.14V51.1104H109.004V45.9141H110.532V58ZM121.024 53.0195C121.024 54.6686 120.673 55.9386 119.97 56.8296C119.267 57.7205 118.268 58.166 116.973 58.166C115.728 58.166 114.743 57.7344 114.018 56.8711C113.299 56.0023 112.925 54.7765 112.897 53.1938V50.9194C112.897 49.3035 113.254 48.0391 113.968 47.126C114.682 46.2074 115.678 45.748 116.957 45.748C118.229 45.748 119.22 46.188 119.928 47.0679C120.642 47.9422 121.007 49.1929 121.024 50.8198V53.0195ZM119.505 50.9028C119.505 49.6245 119.295 48.6755 118.874 48.0557C118.459 47.4303 117.82 47.1177 116.957 47.1177C116.121 47.1177 115.487 47.4331 115.056 48.064C114.63 48.6948 114.414 49.6245 114.408 50.853V53.0195C114.408 54.2536 114.621 55.1943 115.047 55.8418C115.479 56.4893 116.121 56.813 116.973 56.813C117.825 56.813 118.456 56.5142 118.866 55.9165C119.275 55.3188 119.488 54.403 119.505 53.1689V50.9028ZM34.0151 74.8457H29.9312L28.9932 78H27.4326L31.3257 65.9141H32.6289L36.5303 78H34.9697L34.0151 74.8457ZM30.3296 73.5342H33.625L31.9731 68.0391L30.3296 73.5342ZM45.5864 74.165C45.52 75.46 45.1548 76.4505 44.4907 77.1367C43.8322 77.8229 42.8997 78.166 41.6934 78.166C40.4814 78.166 39.5186 77.7067 38.8047 76.7881C38.0908 75.8639 37.7339 74.6133 37.7339 73.0361V70.8447C37.7339 69.2731 38.0991 68.0308 38.8296 67.1177C39.5656 66.2046 40.5672 65.748 41.8345 65.748C43.0021 65.748 43.9041 66.0994 44.5405 66.8022C45.1825 67.4995 45.5311 68.4984 45.5864 69.7988H44.0508C43.9844 68.8138 43.7769 68.111 43.4282 67.6904C43.0796 67.2699 42.5483 67.0596 41.8345 67.0596C41.0099 67.0596 40.3763 67.3833 39.9336 68.0308C39.4909 68.6727 39.2695 69.6162 39.2695 70.8613V73.0776C39.2695 74.3006 39.4743 75.2386 39.8838 75.8916C40.2988 76.5446 40.902 76.8711 41.6934 76.8711C42.4847 76.8711 43.0547 76.6746 43.4033 76.2817C43.752 75.8888 43.9678 75.1833 44.0508 74.165H45.5864ZM55.2319 74.165C55.1655 75.46 54.8003 76.4505 54.1362 77.1367C53.4777 77.8229 52.5452 78.166 51.3389 78.166C50.127 78.166 49.1641 77.7067 48.4502 76.7881C47.7363 75.8639 47.3794 74.6133 47.3794 73.0361V70.8447C47.3794 69.2731 47.7446 68.0308 48.4751 67.1177C49.2111 66.2046 50.2127 65.748 51.48 65.748C52.6476 65.748 53.5496 66.0994 54.186 66.8022C54.828 67.4995 55.1766 68.4984 55.2319 69.7988H53.6963C53.6299 68.8138 53.4224 68.111 53.0737 67.6904C52.7251 67.2699 52.1938 67.0596 51.48 67.0596C50.6554 67.0596 50.0218 67.3833 49.5791 68.0308C49.1364 68.6727 48.915 69.6162 48.915 70.8613V73.0776C48.915 74.3006 49.1198 75.2386 49.5293 75.8916C49.9443 76.5446 50.5475 76.8711 51.3389 76.8711C52.1302 76.8711 52.7002 76.6746 53.0488 76.2817C53.3975 75.8888 53.6133 75.1833 53.6963 74.165H55.2319ZM65.1597 73.0195C65.1597 74.6686 64.8083 75.9386 64.1055 76.8296C63.4027 77.7205 62.4038 78.166 61.1089 78.166C59.8638 78.166 58.8787 77.7344 58.1538 76.8711C57.4344 76.0023 57.0609 74.7765 57.0332 73.1938V70.9194C57.0332 69.3035 57.3901 68.0391 58.104 67.126C58.8179 66.2074 59.814 65.748 61.0923 65.748C62.3651 65.748 63.3556 66.188 64.064 67.0679C64.7778 67.9422 65.1431 69.1929 65.1597 70.8198V73.0195ZM63.6406 70.9028C63.6406 69.6245 63.4303 68.6755 63.0098 68.0557C62.5947 67.4303 61.9556 67.1177 61.0923 67.1177C60.2567 67.1177 59.623 67.4331 59.1914 68.064C58.7653 68.6948 58.5495 69.6245 58.5439 70.853V73.0195C58.5439 74.2536 58.757 75.1943 59.1831 75.8418C59.6147 76.4893 60.2567 76.813 61.1089 76.813C61.9611 76.813 62.592 76.5142 63.0015 75.9165C63.411 75.3188 63.624 74.403 63.6406 73.1689V70.9028ZM67.5835 65.9141H69.1108V76.6968H73.834V65.9141H75.353V76.6636H76.4487L76.2993 80.9136H74.938V78H67.5835V65.9141ZM84.6831 65.9141H86.2021V78H84.6831V68.6865L79.9766 78H78.4492V65.9141H79.9766V75.2275L84.6831 65.9141ZM94.6938 74.8457H90.6099L89.6719 78H88.1113L92.0044 65.9141H93.3076L97.209 78H95.6484L94.6938 74.8457ZM91.0083 73.5342H94.3037L92.6519 68.0391L91.0083 73.5342ZM98.9272 65.9141H100.455V76.6968H105.178V65.9141H106.697V76.6636H107.792L107.643 80.9136H106.282V78H98.9272V65.9141ZM116.027 65.9141H117.546V78H116.027V68.6865L111.32 78H109.793V65.9141H111.32V75.2275L116.027 65.9141ZM126.046 72.4136H121.771V76.6968H126.751V78H120.252V65.9141H126.668V67.2256H121.771V71.1104H126.046V72.4136ZM135.002 65.9141H136.521V78H135.002V68.6865L130.296 78H128.769V65.9141H130.296V75.2275L135.002 65.9141ZM135.16 62.9092C135.16 63.5788 134.931 64.1183 134.471 64.5278C134.017 64.9318 133.42 65.1338 132.678 65.1338C131.937 65.1338 131.336 64.929 130.877 64.5195C130.418 64.11 130.188 63.5732 130.188 62.9092H131.441C131.441 63.2965 131.547 63.6009 131.757 63.8223C131.967 64.0381 132.274 64.146 132.678 64.146C133.066 64.146 133.367 64.0381 133.583 63.8223C133.804 63.6064 133.915 63.3021 133.915 62.9092H135.16ZM47.4043 94.8457H43.3203L42.3823 98H40.8218L44.7148 85.9141H46.0181L49.9194 98H48.3589L47.4043 94.8457ZM43.7188 93.5342H47.0142L45.3623 88.0391L43.7188 93.5342ZM54.3022 92.5713H53.1567V98H51.6377V85.9141H53.1567V91.2432H54.0864L57.4897 85.9141H59.3823L55.5474 91.7578L59.6646 98H57.8052L54.3022 92.5713ZM64.5869 92.6875L66.7451 85.9141H68.5049L65.0269 95.9829C64.7723 96.6304 64.5426 97.0869 64.3379 97.3525C64.1387 97.6126 63.8979 97.8146 63.6157 97.9585C63.3335 98.1024 62.9793 98.1743 62.5532 98.1743C62.1714 98.1743 61.9307 98.1494 61.8311 98.0996L61.8643 96.8379L62.52 96.8711C62.9627 96.8711 63.2809 96.6027 63.4746 96.0659L63.873 94.8789L60.5527 85.9141H62.2461L64.5869 92.6875ZM72.0078 85.9141V96.6968H75.2866V85.9141H76.7974V96.6968H80.0513V85.9141H81.5786V98H70.4805V85.9141H72.0078ZM90.0454 92.4136H85.7705V96.6968H90.751V98H84.2515V85.9141H90.668V87.2256H85.7705V91.1104H90.0454V92.4136ZM94.2207 93.2686V98H92.7017V85.9141H96.5532C97.6766 85.9141 98.5592 86.2516 99.2012 86.9268C99.8431 87.5964 100.164 88.4901 100.164 89.6079C100.164 90.77 99.8569 91.6665 99.2427 92.2974C98.634 92.9227 97.7734 93.2464 96.6611 93.2686H94.2207ZM94.2207 91.9653H96.5532C97.2284 91.9653 97.7458 91.7633 98.1055 91.3594C98.4652 90.9554 98.645 90.3771 98.645 89.6245C98.645 88.8996 98.4596 88.3185 98.0889 87.8813C97.7181 87.4442 97.209 87.2256 96.5615 87.2256H94.2207V91.9653ZM109.992 93.0195C109.992 94.6686 109.641 95.9386 108.938 96.8296C108.235 97.7205 107.236 98.166 105.941 98.166C104.696 98.166 103.711 97.7344 102.986 96.8711C102.267 96.0023 101.893 94.7765 101.866 93.1938V90.9194C101.866 89.3035 102.223 88.0391 102.937 87.126C103.65 86.2074 104.646 85.748 105.925 85.748C107.198 85.748 108.188 86.188 108.896 87.0679C109.61 87.9422 109.976 89.1929 109.992 90.8198V93.0195ZM108.473 90.9028C108.473 89.6245 108.263 88.6755 107.842 88.0557C107.427 87.4303 106.788 87.1177 105.925 87.1177C105.089 87.1177 104.456 87.4331 104.024 88.064C103.598 88.6948 103.382 89.6245 103.376 90.853V93.0195C103.376 94.2536 103.59 95.1943 104.016 95.8418C104.447 96.4893 105.089 96.813 105.941 96.813C106.794 96.813 107.424 96.5142 107.834 95.9165C108.243 95.3188 108.457 94.403 108.473 93.1689V90.9028ZM112.341 98V85.9141H115.786C116.887 85.9141 117.715 86.1825 118.268 86.7192C118.827 87.256 119.106 88.0612 119.106 89.1348C119.106 89.6992 118.965 90.1973 118.683 90.6289C118.401 91.0605 118.019 91.3953 117.538 91.6333C118.091 91.7993 118.528 92.1396 118.849 92.6543C119.176 93.1689 119.339 93.7887 119.339 94.5137C119.339 95.5983 119.04 96.4505 118.442 97.0703C117.85 97.6901 117.004 98 115.902 98H112.341ZM113.86 92.3472V96.6968H115.936C116.511 96.6968 116.968 96.5086 117.305 96.1323C117.643 95.7505 117.812 95.2165 117.812 94.5303C117.812 93.0749 117.197 92.3472 115.969 92.3472H113.86ZM113.86 91.0688H115.811C116.337 91.0688 116.76 90.8918 117.081 90.5376C117.408 90.1834 117.571 89.7131 117.571 89.1265C117.571 88.4624 117.424 87.981 117.131 87.6821C116.838 87.3778 116.389 87.2256 115.786 87.2256H113.86V91.0688ZM124.137 93.4927H120.708V92.2393H124.137V93.4927ZM37.6924 107.226H32.936V118H31.4087V105.914H37.6924V107.226ZM45.9351 105.914H47.4541V118H45.9351V108.687L41.2285 118H39.7012V105.914H41.2285V115.228L45.9351 105.914ZM58.0708 118H56.5435V112.414H51.6792V118H50.1602V105.914H51.6792V111.11H56.5435V105.914H58.0708V118ZM66.4961 112.414H62.2212V116.697H67.2017V118H60.7021V105.914H67.1187V107.226H62.2212V111.11H66.4961V112.414ZM71.8916 112.571H70.7461V118H69.2271V105.914H70.7461V111.243H71.6758L75.0791 105.914H76.9717L73.1367 111.758L77.2539 118H75.3945L71.8916 112.571ZM86.2769 113.02C86.2769 114.669 85.9255 115.939 85.2227 116.83C84.5199 117.721 83.521 118.166 82.2261 118.166C80.981 118.166 79.9959 117.734 79.271 116.871C78.5516 116.002 78.1781 114.777 78.1504 113.194V110.919C78.1504 109.304 78.5073 108.039 79.2212 107.126C79.9351 106.207 80.9312 105.748 82.2095 105.748C83.4823 105.748 84.4728 106.188 85.1812 107.068C85.895 107.942 86.2603 109.193 86.2769 110.82V113.02ZM84.7578 110.903C84.7578 109.625 84.5475 108.675 84.127 108.056C83.7119 107.43 83.0728 107.118 82.2095 107.118C81.3739 107.118 80.7402 107.433 80.3086 108.064C79.8825 108.695 79.6667 109.625 79.6611 110.853V113.02C79.6611 114.254 79.8742 115.194 80.3003 115.842C80.7319 116.489 81.3739 116.813 82.2261 116.813C83.0783 116.813 83.7091 116.514 84.1187 115.917C84.5282 115.319 84.7412 114.403 84.7578 113.169V110.903ZM96.1299 105.914V118H94.6025V107.226H91.2241L91.0415 112.306C90.9751 113.789 90.834 114.92 90.6182 115.701C90.4023 116.481 90.0869 117.056 89.6719 117.427C89.2568 117.798 88.7118 117.989 88.0366 118H87.5718V116.697L87.854 116.68C88.258 116.647 88.5734 116.492 88.8003 116.215C89.0272 115.933 89.1987 115.488 89.3149 114.879C89.4312 114.27 89.5142 113.34 89.564 112.09L89.7632 105.914H96.1299ZM106.697 113.02C106.697 114.669 106.345 115.939 105.643 116.83C104.94 117.721 103.941 118.166 102.646 118.166C101.401 118.166 100.416 117.734 99.6909 116.871C98.9715 116.002 98.598 114.777 98.5703 113.194V110.919C98.5703 109.304 98.9272 108.039 99.6411 107.126C100.355 106.207 101.351 105.748 102.629 105.748C103.902 105.748 104.893 106.188 105.601 107.068C106.315 107.942 106.68 109.193 106.697 110.82V113.02ZM105.178 110.903C105.178 109.625 104.967 108.675 104.547 108.056C104.132 107.43 103.493 107.118 102.629 107.118C101.794 107.118 101.16 107.433 100.729 108.064C100.302 108.695 100.087 109.625 100.081 110.853V113.02C100.081 114.254 100.294 115.194 100.72 115.842C101.152 116.489 101.794 116.813 102.646 116.813C103.498 116.813 104.129 116.514 104.539 115.917C104.948 115.319 105.161 114.403 105.178 113.169V110.903ZM115.404 107.226H110.648V118H109.121V105.914H115.404V107.226ZM124.643 113.02C124.643 114.669 124.292 115.939 123.589 116.83C122.886 117.721 121.887 118.166 120.592 118.166C119.347 118.166 118.362 117.734 117.637 116.871C116.918 116.002 116.544 114.777 116.517 113.194V110.919C116.517 109.304 116.874 108.039 117.587 107.126C118.301 106.207 119.297 105.748 120.576 105.748C121.848 105.748 122.839 106.188 123.547 107.068C124.261 107.942 124.626 109.193 124.643 110.82V113.02ZM123.124 110.903C123.124 109.625 122.914 108.675 122.493 108.056C122.078 107.43 121.439 107.118 120.576 107.118C119.74 107.118 119.106 107.433 118.675 108.064C118.249 108.695 118.033 109.625 118.027 110.853V113.02C118.027 114.254 118.24 115.194 118.667 115.842C119.098 116.489 119.74 116.813 120.592 116.813C121.444 116.813 122.075 116.514 122.485 115.917C122.894 115.319 123.107 114.403 123.124 113.169V110.903ZM126.992 118V105.914H130.437C131.538 105.914 132.366 106.182 132.919 106.719C133.478 107.256 133.757 108.061 133.757 109.135C133.757 109.699 133.616 110.197 133.334 110.629C133.052 111.061 132.67 111.395 132.188 111.633C132.742 111.799 133.179 112.14 133.5 112.654C133.826 113.169 133.99 113.789 133.99 114.514C133.99 115.598 133.691 116.451 133.093 117.07C132.501 117.69 131.654 118 130.553 118H126.992ZM128.511 112.347V116.697H130.586C131.162 116.697 131.618 116.509 131.956 116.132C132.294 115.75 132.462 115.216 132.462 114.53C132.462 113.075 131.848 112.347 130.62 112.347H128.511ZM128.511 111.069H130.462C130.988 111.069 131.411 110.892 131.732 110.538C132.058 110.183 132.222 109.713 132.222 109.126C132.222 108.462 132.075 107.981 131.782 107.682C131.488 107.378 131.04 107.226 130.437 107.226H128.511V111.069Z" fill="#4B4B4B"/>
</svg>
