<svg width="164" height="164" viewBox="0 0 164 164" fill="none" xmlns="http://www.w3.org/2000/svg">
<path d="M65.9072 76H63.9082V62.1528L60.4717 63.6914V61.8047L65.5928 59.5698H65.9072V76ZM80.0913 69.0259C80.0913 71.4367 79.7394 73.241 79.0356 74.439C78.3319 75.6294 77.2275 76.2246 75.7227 76.2246C74.2627 76.2246 73.1733 75.6519 72.4546 74.5063C71.7358 73.3608 71.3615 71.6388 71.3315 69.3403V66.5327C71.3315 64.1444 71.6834 62.3625 72.3872 61.187C73.0985 60.0116 74.2028 59.4238 75.7002 59.4238C77.1751 59.4238 78.2645 59.9816 78.9683 61.0972C79.6795 62.2127 80.0539 63.901 80.0913 66.1621V69.0259ZM78.1035 66.1846C78.1035 64.4551 77.9126 63.1823 77.5308 62.3662C77.1489 61.5426 76.5387 61.1309 75.7002 61.1309C74.8841 61.1309 74.2852 61.5352 73.9033 62.3438C73.5215 63.1449 73.3231 64.3577 73.3081 65.9824V69.3516C73.3081 71.0736 73.5065 72.3688 73.9033 73.2373C74.3001 74.0983 74.9066 74.5288 75.7227 74.5288C76.5312 74.5288 77.1265 74.1208 77.5083 73.3047C77.8901 72.4886 78.0885 71.242 78.1035 69.5649V66.1846ZM91.4565 69.0259C91.4565 71.4367 91.1047 73.241 90.4009 74.439C89.6971 75.6294 88.5928 76.2246 87.0879 76.2246C85.6279 76.2246 84.5386 75.6519 83.8198 74.5063C83.1011 73.3608 82.7267 71.6388 82.6968 69.3403V66.5327C82.6968 64.1444 83.0487 62.3625 83.7524 61.187C84.4637 60.0116 85.568 59.4238 87.0654 59.4238C88.5404 59.4238 89.6297 59.9816 90.3335 61.0972C91.0448 62.2127 91.4191 63.901 91.4565 66.1621V69.0259ZM89.4688 66.1846C89.4688 64.4551 89.2778 63.1823 88.896 62.3662C88.5142 61.5426 87.904 61.1309 87.0654 61.1309C86.2493 61.1309 85.6504 61.5352 85.2686 62.3438C84.8867 63.1449 84.6883 64.3577 84.6733 65.9824V69.3516C84.6733 71.0736 84.8717 72.3688 85.2686 73.2373C85.6654 74.0983 86.2718 74.5288 87.0879 74.5288C87.8965 74.5288 88.4917 74.1208 88.8735 73.3047C89.2554 72.4886 89.4538 71.242 89.4688 69.5649V66.1846ZM93.9722 62.793C93.9722 61.8197 94.2342 61.0148 94.7583 60.3784C95.2899 59.7345 95.9787 59.4126 96.8247 59.4126C97.6632 59.4126 98.3483 59.7271 98.8799 60.356C99.4189 60.9849 99.6885 61.8122 99.6885 62.8379V63.6577C99.6885 64.6385 99.4227 65.4434 98.8911 66.0723C98.367 66.7012 97.6857 67.0156 96.8472 67.0156C96.0086 67.0156 95.3198 66.7012 94.7808 66.0723C94.2417 65.4434 93.9722 64.616 93.9722 63.5903V62.793ZM95.4209 63.6577C95.4209 64.2567 95.5519 64.7433 95.814 65.1177C96.076 65.4845 96.4204 65.668 96.8472 65.668C97.259 65.668 97.5921 65.4883 97.8467 65.1289C98.1087 64.762 98.2397 64.2567 98.2397 63.6128V62.793C98.2397 62.1865 98.1087 61.6999 97.8467 61.333C97.5846 60.9587 97.244 60.7715 96.8247 60.7715C96.3979 60.7715 96.0573 60.9587 95.8027 61.333C95.5482 61.7074 95.4209 62.2052 95.4209 62.8267V63.6577ZM100.576 71.9907C100.576 71.0099 100.841 70.2051 101.373 69.5762C101.905 68.9398 102.59 68.6216 103.428 68.6216C104.267 68.6216 104.956 68.936 105.495 69.5649C106.034 70.1938 106.303 71.0286 106.303 72.0693V72.8667C106.303 73.855 106.034 74.6636 105.495 75.2925C104.956 75.9214 104.274 76.2358 103.451 76.2358C102.612 76.2358 101.923 75.9214 101.384 75.2925C100.845 74.6636 100.576 73.8363 100.576 72.8105V71.9907ZM102.024 72.8667C102.024 73.4731 102.155 73.9635 102.417 74.3379C102.68 74.7048 103.024 74.8882 103.451 74.8882C103.87 74.8882 104.207 74.701 104.461 74.3267C104.716 73.9523 104.843 73.4544 104.843 72.833V71.9907C104.843 71.3843 104.712 70.8976 104.45 70.5308C104.188 70.1639 103.847 69.9805 103.428 69.9805C103.016 69.9805 102.68 70.1639 102.417 70.5308C102.155 70.8901 102.024 71.388 102.024 72.0244V72.8667ZM97.2515 74.7646L96.1621 74.0234L102.867 61.2432L103.967 61.9844L97.2515 74.7646ZM43.7046 88.4229H37.2695V103H35.2031V86.6484H43.7046V88.4229ZM51.667 98.7324H46.1416L44.8726 103H42.7612L48.0283 86.6484H49.7915L55.0698 103H52.9585L51.667 98.7324ZM46.6807 96.958H51.1392L48.9043 89.5234L46.6807 96.958ZM59.3486 96.5986V103H57.2935V86.6484H62.5044C64.0243 86.6484 65.2184 87.1051 66.0869 88.0186C66.9554 88.9245 67.3896 90.1336 67.3896 91.646C67.3896 93.2183 66.9741 94.4312 66.1431 95.2847C65.3195 96.1307 64.1553 96.5687 62.6504 96.5986H59.3486ZM59.3486 94.8354H62.5044C63.4178 94.8354 64.1178 94.5622 64.6045 94.0156C65.0911 93.4691 65.3345 92.6867 65.3345 91.6685C65.3345 90.6877 65.0837 89.9015 64.582 89.3101C64.0804 88.7186 63.3916 88.4229 62.5156 88.4229H59.3486V94.8354ZM75.7227 98.7324H70.1973L68.9282 103H66.8169L72.084 86.6484H73.8472L79.1255 103H77.0142L75.7227 98.7324ZM70.7363 96.958H75.1948L72.96 89.5234L70.7363 96.958ZM92.0518 103H89.9854V95.4419H83.4043V103H81.3491V86.6484H83.4043V93.6787H89.9854V86.6484H92.0518V103ZM104.832 88.4229H100.531V103H98.4756V88.4229H94.1855V86.6484H104.832V88.4229ZM115.771 86.6484H117.826V103H115.771V90.3994L109.403 103H107.336V86.6484H109.403V99.249L115.771 86.6484ZM128.618 103V96.6323H125.788L122.969 103H120.779L123.98 96.0034C122.198 95.1724 121.307 93.6974 121.307 91.5786C121.307 90.0438 121.734 88.8421 122.587 87.9736C123.448 87.0977 124.65 86.6559 126.192 86.6484H130.685V103H128.618ZM123.374 91.5786C123.374 92.5669 123.621 93.3605 124.115 93.9595C124.609 94.5509 125.301 94.8542 126.192 94.8691H128.618V88.4229H126.215C125.286 88.4229 124.579 88.7036 124.092 89.2651C123.613 89.8267 123.374 90.5978 123.374 91.5786Z" fill="#4B4B4B"/>
</svg>
